<svg id="BG" xmlns="http://www.w3.org/2000/svg" viewBox="0 0 1214 941"><defs><style>.cls-1{fill:#204056;}.cls-2{fill:#7a98a9;}.cls-3,.cls-5{fill:#4e768d;}.cls-4{fill:#fff;}.cls-5{opacity:0.5;}</style></defs><title>Diagrams-bd</title><rect class="cls-1" width="1214" height="941"/><path class="cls-2" d="M491.46,235.52V218.63h9.41l-0.06,1.2h-7.9v6.35h7.51v1.24h-7.51v6.88h8.15l-0.12,1.21h-9.47Z"/><path class="cls-2" d="M510.85,235.52v-11.4h-4.64v11.4H504.8v-11.4h-2l0.09-.87,2-.16v-0.46a5.88,5.88,0,0,1,.86-3.56,3.11,3.11,0,0,1,2.63-1.11,14.64,14.64,0,0,1,1.74.17l-0.1.93q-1.09-.13-1.47-0.12a1.85,1.85,0,0,0-1.76.83,6.45,6.45,0,0,0-.47,2.93v0.4h4.64v-0.46a5.88,5.88,0,0,1,.86-3.56,3.11,3.11,0,0,1,2.63-1.11,14.64,14.64,0,0,1,1.74.17L516,219q-1.09-.13-1.47-0.12a1.85,1.85,0,0,0-1.76.83,6.45,6.45,0,0,0-.47,2.93v0.4h3v1h-3v11.4h-1.41Z"/><path class="cls-2" d="M522.18,235.79a5.17,5.17,0,0,1-4.09-1.72,6.84,6.84,0,0,1-1.51-4.67,7.14,7.14,0,0,1,1.48-4.66,4.88,4.88,0,0,1,3.83-1.87,4.38,4.38,0,0,1,3.52,1.57,6.28,6.28,0,0,1,1.33,4.2c0,0.07,0,.21,0,0.42s0,0.35,0,.44h-8.66a6,6,0,0,0,1.16,3.8,3.67,3.67,0,0,0,3,1.4,7,7,0,0,0,2.11-.28,11,11,0,0,0,1.87-.81l0.24,1.06A8,8,0,0,1,522.18,235.79Zm-4.06-7.46h7.08a4.94,4.94,0,0,0-.9-3.18,3,3,0,0,0-2.46-1.11,3.17,3.17,0,0,0-2.56,1.18A5.57,5.57,0,0,0,518.11,228.33Z"/><path class="cls-2" d="M534.73,235.79a5.51,5.51,0,0,1-3.13-.88,5.44,5.44,0,0,1-2-2.31,7.59,7.59,0,0,1-.65-3.17,8.07,8.07,0,0,1,.39-2.52,6.77,6.77,0,0,1,1.09-2.09,5,5,0,0,1,1.83-1.44,5.76,5.76,0,0,1,2.49-.53,6.89,6.89,0,0,1,1.79.24,3.85,3.85,0,0,1,1.32.57l-0.44,1.05a5.56,5.56,0,0,0-2.77-.66,3.68,3.68,0,0,0-3.08,1.47,6.21,6.21,0,0,0-1.13,3.9,5.91,5.91,0,0,0,1.13,3.76,3.71,3.71,0,0,0,3.08,1.44,7.37,7.37,0,0,0,2.93-.68l0.22,1a4,4,0,0,1-1.38.62A6.74,6.74,0,0,1,534.73,235.79Z"/><path class="cls-2" d="M544,235.78a3.18,3.18,0,0,1-2.29-.71,3.13,3.13,0,0,1-.73-2.31v-8.65h-1.76l0.1-.85,1.68-.16,0.37-2.85,1-.07v2.89H546v1h-3.63v8.35a2.61,2.61,0,0,0,.43,1.76,2.07,2.07,0,0,0,1.52.45,7.46,7.46,0,0,0,1.75-.26l0.06,1.09A11.73,11.73,0,0,1,544,235.78Z"/><path class="cls-2" d="M548.31,220.54v-1.91h1.41v1.91h-1.41Zm0,15V223.08h1.42v12.44h-1.42Z"/><path class="cls-2" d="M556.3,235.52l-4.74-12.44h1.51l2.88,7.84q0.23,0.74.54,1.57t0.5,1.3l0.19,0.46a16,16,0,0,1,.56-1.56q0.35-.83.63-1.74t1.11-2.94q0.81-2,1.76-4.93h1.51l-4.82,12.44H556.3Z"/><path class="cls-2" d="M569.47,235.79a5.17,5.17,0,0,1-4.09-1.72,6.84,6.84,0,0,1-1.51-4.67,7.14,7.14,0,0,1,1.48-4.66,4.88,4.88,0,0,1,3.83-1.87,4.38,4.38,0,0,1,3.52,1.57,6.28,6.28,0,0,1,1.33,4.2c0,0.07,0,.21,0,0.42s0,0.35,0,.44h-8.66a6,6,0,0,0,1.16,3.8,3.67,3.67,0,0,0,3,1.4,7,7,0,0,0,2.11-.28,11,11,0,0,0,1.87-.81l0.24,1.06A8,8,0,0,1,569.47,235.79Zm-4.06-7.46h7.08a4.94,4.94,0,0,0-.9-3.18,3,3,0,0,0-2.46-1.11,3.17,3.17,0,0,0-2.56,1.18A5.57,5.57,0,0,0,565.41,228.33Z"/><path class="cls-2" d="M586.79,235.78a4.7,4.7,0,0,1-3.87-1.72,7.39,7.39,0,0,1-1.39-4.77,7.19,7.19,0,0,1,1.44-4.65,4.62,4.62,0,0,1,3.78-1.79,5.8,5.8,0,0,1,2.31.5,3.6,3.6,0,0,1,1.76,1.55v-6.65l1.36-.12v17.38H591l-0.2-1.87a4.15,4.15,0,0,1-1.75,1.59A5.12,5.12,0,0,1,586.79,235.78Zm0-1.11a4.18,4.18,0,0,0,1.85-.39,3.18,3.18,0,0,0,1.27-1.09,5.11,5.11,0,0,0,.71-1.62,8.2,8.2,0,0,0,.23-2q0-5.55-4.08-5.55a3.15,3.15,0,0,0-1.7.46,3.31,3.31,0,0,0-1.16,1.24,6.42,6.42,0,0,0-.63,1.69,8.75,8.75,0,0,0-.21,1.92,10.22,10.22,0,0,0,.13,1.64,6.61,6.61,0,0,0,.41,1.46,4.34,4.34,0,0,0,.7,1.19,3,3,0,0,0,1.06.78A3.4,3.4,0,0,0,586.75,234.67Z"/><path class="cls-2" d="M595.66,220.54v-1.91h1.41v1.91h-1.41Zm0,15V223.08h1.42v12.44h-1.42Z"/><path class="cls-2" d="M604.19,235.8a8.33,8.33,0,0,1-2.26-.29,5.89,5.89,0,0,1-1.67-.7l0.2-1.18a7.76,7.76,0,0,0,3.59,1q3.07,0,3.19-2.28a1.89,1.89,0,0,0-.62-1.5,7.52,7.52,0,0,0-2.48-1.13l-1.08-.37q-2.92-.88-2.94-3.14a3,3,0,0,1,1.15-2.31,4.58,4.58,0,0,1,3.11-1,8.93,8.93,0,0,1,3.69.77l-0.48,1a9.26,9.26,0,0,0-3.25-.66,3.28,3.28,0,0,0-2.07.59,1.91,1.91,0,0,0-.75,1.59,1.65,1.65,0,0,0,.49,1.29,5.2,5.2,0,0,0,2,.86l0.58,0.2,0.47,0.17a6.37,6.37,0,0,1,2.74,1.42,3.13,3.13,0,0,1,.78,2.24,3.08,3.08,0,0,1-1.22,2.53A5.09,5.09,0,0,1,604.19,235.8Z"/><path class="cls-2" d="M614.78,235.78a3.18,3.18,0,0,1-2.29-.71,3.13,3.13,0,0,1-.73-2.31v-8.65H610l0.1-.85,1.68-.16,0.37-2.85,1-.07v2.89h3.63v1h-3.63v8.35a2.61,2.61,0,0,0,.43,1.76,2.07,2.07,0,0,0,1.52.45,7.46,7.46,0,0,0,1.75-.26l0.06,1.09A11.73,11.73,0,0,1,614.78,235.78Z"/><path class="cls-2" d="M622.27,235.79a4.24,4.24,0,0,1-2.81-.88,3.12,3.12,0,0,1-1.06-2.53,3.32,3.32,0,0,1,.42-1.7,3.16,3.16,0,0,1,1.22-1.17,7.19,7.19,0,0,1,1.83-.7,14.89,14.89,0,0,1,2.39-.35l2.16-.15v-1.38a3.11,3.11,0,0,0-.65-2.15,2.7,2.7,0,0,0-2.09-.72A7.54,7.54,0,0,0,620,225l-0.21-.49c-0.11-.25-0.19-0.45-0.23-0.58a6.58,6.58,0,0,1,1.84-.76,8.51,8.51,0,0,1,2.22-.31,4.47,4.47,0,0,1,3.21,1,4.69,4.69,0,0,1,1,3.4v8.31h-1.1q-0.06-.26-0.16-1c-0.07-.51-0.11-0.78-0.11-0.79A4.76,4.76,0,0,1,622.27,235.79Zm0-1.12a4.16,4.16,0,0,0,2.58-.86,4,4,0,0,0,1.48-2.38v-2.12l-1.65.14a9.66,9.66,0,0,0-3.85.91,2.23,2.23,0,0,0-1.08,2,2.08,2.08,0,0,0,.69,1.7A2.77,2.77,0,0,0,622.31,234.67Z"/><path class="cls-2" d="M631.16,235.52V223.08h1.23l0.19,1.92a4.65,4.65,0,0,1,1.8-1.57,5.29,5.29,0,0,1,2.43-.57A3.93,3.93,0,0,1,640,224a5.74,5.74,0,0,1,1,3.77v7.72h-1.42v-8.35a3.74,3.74,0,0,0-.7-2.38,2.72,2.72,0,0,0-2.12-.73,4.31,4.31,0,0,0-2.76.85,3.65,3.65,0,0,0-1.34,2.2q0,0.53,0,1.11v7.3h-1.42Z"/><path class="cls-2" d="M649.42,235.79a5.51,5.51,0,0,1-3.13-.88,5.44,5.44,0,0,1-2-2.31,7.59,7.59,0,0,1-.65-3.17,8.07,8.07,0,0,1,.39-2.52,6.77,6.77,0,0,1,1.09-2.09,5,5,0,0,1,1.83-1.44,5.76,5.76,0,0,1,2.49-.53,6.89,6.89,0,0,1,1.79.24,3.85,3.85,0,0,1,1.32.57l-0.44,1.05a5.56,5.56,0,0,0-2.77-.66,3.68,3.68,0,0,0-3.08,1.47,6.21,6.21,0,0,0-1.13,3.9,5.91,5.91,0,0,0,1.13,3.76,3.71,3.71,0,0,0,3.08,1.44,7.37,7.37,0,0,0,2.93-.68l0.22,1a4,4,0,0,1-1.38.62A6.74,6.74,0,0,1,649.42,235.79Z"/><path class="cls-2" d="M660.18,235.79a5.17,5.17,0,0,1-4.09-1.72,6.84,6.84,0,0,1-1.51-4.67,7.14,7.14,0,0,1,1.48-4.66,4.88,4.88,0,0,1,3.83-1.87,4.38,4.38,0,0,1,3.52,1.57,6.28,6.28,0,0,1,1.33,4.2c0,0.07,0,.21,0,0.42s0,0.35,0,.44h-8.66a6,6,0,0,0,1.16,3.8,3.67,3.67,0,0,0,3,1.4,7,7,0,0,0,2.11-.28,11,11,0,0,0,1.87-.81l0.24,1.06A8,8,0,0,1,660.18,235.79Zm-4.06-7.46h7.08a4.94,4.94,0,0,0-.9-3.18,3,3,0,0,0-2.46-1.11,3.17,3.17,0,0,0-2.56,1.18A5.57,5.57,0,0,0,656.12,228.33Z"/><path class="cls-2" d="M672.63,235.52l-0.34-1.44,5.89-6.85a16,16,0,0,0,1.72-2.39,4.05,4.05,0,0,0,.57-2,3.6,3.6,0,0,0-.76-2.47,2.88,2.88,0,0,0-2.27-.86,7.1,7.1,0,0,0-2.12.32,4.27,4.27,0,0,0-1.7.95l-0.53-1.1a6.16,6.16,0,0,1,4.4-1.36,4.77,4.77,0,0,1,3.42,1.19,4.12,4.12,0,0,1,1.25,3.13,5.48,5.48,0,0,1-.66,2.57,17,17,0,0,1-2.18,3l-5.11,5.87h8.09l-0.09,1.4h-9.59Z"/><path class="cls-2" d="M693.53,235.14a4.79,4.79,0,0,1-2.51.65,4.69,4.69,0,0,1-4.28-2.49,9.68,9.68,0,0,1-1-2.81,17.9,17.9,0,0,1-.33-3.63,12.5,12.5,0,0,1,1.45-6.58A4.64,4.64,0,0,1,691,218a4.59,4.59,0,0,1,4.16,2.32,12.65,12.65,0,0,1,1.42,6.59,18.21,18.21,0,0,1-.33,3.63,9.71,9.71,0,0,1-1,2.81A4.86,4.86,0,0,1,693.53,235.14Zm-2.52-.66a3.18,3.18,0,0,0,2.8-2.08,12.37,12.37,0,0,0,1.07-5.6,12,12,0,0,0-1.07-5.5,2.93,2.93,0,0,0-5.59,0,12,12,0,0,0-1.05,5.51,12.35,12.35,0,0,0,1.06,5.59A3.16,3.16,0,0,0,691,234.48Z"/><path class="cls-2" d="M699.58,241.05v-18h1.26l0.13,1.77a6.76,6.76,0,0,1,1.78-1.5,4.27,4.27,0,0,1,2.1-.5,4.65,4.65,0,0,1,4,1.76,7.89,7.89,0,0,1,1.32,4.83,7.17,7.17,0,0,1-1.4,4.57,4.55,4.55,0,0,1-3.78,1.78,4.87,4.87,0,0,1-2.31-.58,4.68,4.68,0,0,1-1.72-1.52q0.06,1.4.06,2.75V241Zm5.3-6.42a3.18,3.18,0,0,0,1.71-.47,3.45,3.45,0,0,0,1.19-1.24,6.39,6.39,0,0,0,.66-1.69,8,8,0,0,0,.22-1.9,8.23,8.23,0,0,0-.22-1.91,6.46,6.46,0,0,0-.65-1.68,3.37,3.37,0,0,0-1.2-1.24,3.26,3.26,0,0,0-1.74-.46,4.06,4.06,0,0,0-1.82.38,3,3,0,0,0-1.21,1.08,5,5,0,0,0-.65,1.6,9.14,9.14,0,0,0-.2,2,11.62,11.62,0,0,0,.19,2.26,5.56,5.56,0,0,0,.63,1.72,2.84,2.84,0,0,0,1.21,1.14A4.16,4.16,0,0,0,704.87,234.63Z"/><path class="cls-2" d="M711.35,235.52l4.64-6.3-4.49-6.14h1.57l3.63,5.13,3.61-5.13h1.6l-4.48,6.18,4.57,6.25h-1.51l-3.78-5.28-3.77,5.28h-1.59Z"/><polygon class="cls-3" points="606.4 271.63 606.4 248.89 605.4 248.89 605.4 271.63 582.17 271.63 582.17 295.37 583.17 295.37 583.17 272.63 628.64 272.63 628.64 295.37 629.64 295.37 629.64 271.63 606.4 271.63"/><path class="cls-2" d="M51.6,518.43V501.54H61l-0.06,1.2H53v6.35h7.51v1.24H53v6.88H61.2l-0.12,1.21H51.6Z"/><path class="cls-2" d="M71,518.43V507H66.35v11.4H64.94V507h-2l0.09-.87,2-.16v-0.46A5.88,5.88,0,0,1,65.8,502a3.11,3.11,0,0,1,2.63-1.11,14.64,14.64,0,0,1,1.74.17l-0.1.93q-1.09-.13-1.47-0.12a1.85,1.85,0,0,0-1.76.83,6.45,6.45,0,0,0-.47,2.93V506H71v-0.46a5.88,5.88,0,0,1,.86-3.56,3.11,3.11,0,0,1,2.63-1.11,14.64,14.64,0,0,1,1.74.17l-0.1.93q-1.09-.13-1.47-0.12a1.85,1.85,0,0,0-1.76.83,6.45,6.45,0,0,0-.47,2.93V506h3v1h-3v11.4H71Z"/><path class="cls-2" d="M82.31,518.7A5.17,5.17,0,0,1,78.22,517a6.84,6.84,0,0,1-1.51-4.67,7.14,7.14,0,0,1,1.48-4.66A4.88,4.88,0,0,1,82,505.76a4.38,4.38,0,0,1,3.52,1.57,6.28,6.28,0,0,1,1.33,4.2c0,0.07,0,.21,0,0.42s0,0.35,0,.44H78.19a6,6,0,0,0,1.16,3.8,3.67,3.67,0,0,0,3,1.4,7,7,0,0,0,2.11-.28,11,11,0,0,0,1.87-.81l0.24,1.06A8,8,0,0,1,82.31,518.7Zm-4.06-7.46h7.08a4.94,4.94,0,0,0-.9-3.18A3,3,0,0,0,82,507a3.17,3.17,0,0,0-2.56,1.18A5.57,5.57,0,0,0,78.25,511.24Z"/><path class="cls-2" d="M94.86,518.7a5.51,5.51,0,0,1-3.13-.88,5.44,5.44,0,0,1-2-2.31,7.59,7.59,0,0,1-.65-3.17,8.07,8.07,0,0,1,.39-2.52,6.77,6.77,0,0,1,1.09-2.09,5,5,0,0,1,1.83-1.44,5.76,5.76,0,0,1,2.49-.53,6.89,6.89,0,0,1,1.79.24,3.85,3.85,0,0,1,1.32.57l-0.44,1.05a5.56,5.56,0,0,0-2.77-.66,3.68,3.68,0,0,0-3.08,1.47,6.21,6.21,0,0,0-1.13,3.9,5.91,5.91,0,0,0,1.13,3.76,3.71,3.71,0,0,0,3.08,1.44,7.37,7.37,0,0,0,2.93-.68l0.22,1a4,4,0,0,1-1.38.62A6.74,6.74,0,0,1,94.86,518.7Z"/><path class="cls-2" d="M104.13,518.69a3.18,3.18,0,0,1-2.29-.71,3.13,3.13,0,0,1-.73-2.31V507H99.36l0.1-.85,1.68-.16,0.37-2.85,1-.07V506h3.63v1H102.5v8.35a2.61,2.61,0,0,0,.43,1.76,2.07,2.07,0,0,0,1.52.45,7.46,7.46,0,0,0,1.75-.26l0.06,1.09A11.73,11.73,0,0,1,104.13,518.69Z"/><path class="cls-2" d="M108.45,503.45v-1.91h1.41v1.91h-1.41Zm0,15V506h1.42v12.44h-1.42Z"/><path class="cls-2" d="M116.43,518.43L111.69,506h1.51l2.88,7.84q0.23,0.74.54,1.57t0.5,1.3l0.19,0.46a16,16,0,0,1,.56-1.56q0.35-.83.63-1.74t1.11-2.94q0.81-2,1.76-4.93h1.51l-4.82,12.44h-1.63Z"/><path class="cls-2" d="M129.61,518.7a5.17,5.17,0,0,1-4.09-1.72A6.84,6.84,0,0,1,124,512.3a7.14,7.14,0,0,1,1.48-4.66,4.88,4.88,0,0,1,3.83-1.87,4.38,4.38,0,0,1,3.52,1.57,6.28,6.28,0,0,1,1.33,4.2c0,0.07,0,.21,0,0.42s0,0.35,0,.44h-8.66a6,6,0,0,0,1.16,3.8,3.67,3.67,0,0,0,3,1.4,7,7,0,0,0,2.11-.28,11,11,0,0,0,1.87-.81l0.24,1.06A8,8,0,0,1,129.61,518.7Zm-4.06-7.46h7.08a4.94,4.94,0,0,0-.9-3.18,3,3,0,0,0-2.46-1.11,3.17,3.17,0,0,0-2.56,1.18A5.57,5.57,0,0,0,125.55,511.24Z"/><path class="cls-2" d="M56.22,546.57a4.7,4.7,0,0,1-3.87-1.72A7.39,7.39,0,0,1,51,540.08a7.19,7.19,0,0,1,1.44-4.65,4.62,4.62,0,0,1,3.78-1.79,5.8,5.8,0,0,1,2.31.5,3.6,3.6,0,0,1,1.76,1.55v-6.65l1.36-.12v17.38H60.44l-0.2-1.87A4.15,4.15,0,0,1,58.48,546,5.12,5.12,0,0,1,56.22,546.57Zm0-1.11a4.18,4.18,0,0,0,1.85-.39A3.18,3.18,0,0,0,59.3,544a5.11,5.11,0,0,0,.71-1.62,8.2,8.2,0,0,0,.23-2q0-5.55-4.08-5.55a3.15,3.15,0,0,0-1.7.46,3.31,3.31,0,0,0-1.16,1.24,6.42,6.42,0,0,0-.63,1.69,8.75,8.75,0,0,0-.21,1.92,10.22,10.22,0,0,0,.13,1.64A6.61,6.61,0,0,0,53,543.2a4.34,4.34,0,0,0,.7,1.19,3,3,0,0,0,1.06.78A3.4,3.4,0,0,0,56.18,545.46Z"/><path class="cls-2" d="M65.09,531.34v-1.91H66.5v1.91H65.09Zm0,15V533.88h1.42v12.44H65.09Z"/><path class="cls-2" d="M73.62,546.6a8.33,8.33,0,0,1-2.26-.29,5.89,5.89,0,0,1-1.67-.7l0.2-1.18a7.76,7.76,0,0,0,3.59,1q3.07,0,3.19-2.28a1.89,1.89,0,0,0-.62-1.5,7.52,7.52,0,0,0-2.48-1.13l-1.08-.37q-2.92-.88-2.94-3.14a3,3,0,0,1,1.15-2.31,4.58,4.58,0,0,1,3.11-1,8.93,8.93,0,0,1,3.69.77l-0.48,1a9.26,9.26,0,0,0-3.25-.66,3.28,3.28,0,0,0-2.07.59A1.91,1.91,0,0,0,71,537a1.65,1.65,0,0,0,.49,1.29,5.2,5.2,0,0,0,2,.86l0.58,0.2,0.47,0.17a6.37,6.37,0,0,1,2.74,1.42,3.13,3.13,0,0,1,.78,2.24,3.08,3.08,0,0,1-1.22,2.53A5.09,5.09,0,0,1,73.62,546.6Z"/><path class="cls-2" d="M84.21,546.57a3.18,3.18,0,0,1-2.29-.71,3.13,3.13,0,0,1-.73-2.31v-8.65H79.43l0.1-.85,1.68-.16,0.37-2.85,1-.07v2.89h3.63v1H82.57v8.35A2.61,2.61,0,0,0,83,545a2.07,2.07,0,0,0,1.52.45,7.46,7.46,0,0,0,1.75-.26l0.06,1.09A11.73,11.73,0,0,1,84.21,546.57Z"/><path class="cls-2" d="M91.7,546.59a4.24,4.24,0,0,1-2.81-.88,3.12,3.12,0,0,1-1.06-2.53,3.32,3.32,0,0,1,.42-1.7,3.16,3.16,0,0,1,1.22-1.17,7.19,7.19,0,0,1,1.83-.7,14.89,14.89,0,0,1,2.39-.35l2.16-.15v-1.38a3.11,3.11,0,0,0-.65-2.15,2.7,2.7,0,0,0-2.09-.72,7.54,7.54,0,0,0-3.69.94l-0.21-.49C89.09,535,89,534.85,89,534.72A6.58,6.58,0,0,1,90.8,534a8.51,8.51,0,0,1,2.22-.31,4.47,4.47,0,0,1,3.21,1,4.69,4.69,0,0,1,1,3.4v8.31h-1.1q-0.06-.26-0.16-1c-0.07-.51-0.11-0.78-0.11-0.79A4.76,4.76,0,0,1,91.7,546.59Zm0-1.12a4.16,4.16,0,0,0,2.58-.86,4,4,0,0,0,1.48-2.38v-2.12l-1.65.14a9.66,9.66,0,0,0-3.85.91,2.23,2.23,0,0,0-1.08,2,2.08,2.08,0,0,0,.69,1.7A2.77,2.77,0,0,0,91.74,545.46Z"/><path class="cls-2" d="M100.59,546.31V533.88h1.23L102,535.8a4.65,4.65,0,0,1,1.8-1.57,5.29,5.29,0,0,1,2.43-.57,3.93,3.93,0,0,1,3.15,1.18,5.74,5.74,0,0,1,1,3.77v7.72H109V538a3.74,3.74,0,0,0-.7-2.38,2.72,2.72,0,0,0-2.12-.73,4.31,4.31,0,0,0-2.76.85,3.65,3.65,0,0,0-1.34,2.2q0,0.53,0,1.11v7.3h-1.42Z"/><path class="cls-2" d="M118.85,546.59a5.51,5.51,0,0,1-3.13-.88,5.44,5.44,0,0,1-2-2.31,7.59,7.59,0,0,1-.65-3.17,8.07,8.07,0,0,1,.39-2.52,6.77,6.77,0,0,1,1.09-2.09,5,5,0,0,1,1.83-1.44,5.76,5.76,0,0,1,2.49-.53,6.89,6.89,0,0,1,1.79.24,3.85,3.85,0,0,1,1.32.57l-0.44,1.05a5.56,5.56,0,0,0-2.77-.66,3.68,3.68,0,0,0-3.08,1.47,6.21,6.21,0,0,0-1.13,3.9,5.91,5.91,0,0,0,1.13,3.76,3.71,3.71,0,0,0,3.08,1.44,7.37,7.37,0,0,0,2.93-.68l0.22,1a4,4,0,0,1-1.38.62A6.74,6.74,0,0,1,118.85,546.59Z"/><path class="cls-2" d="M129.61,546.59a5.17,5.17,0,0,1-4.09-1.72,6.84,6.84,0,0,1-1.51-4.67,7.14,7.14,0,0,1,1.48-4.66,4.88,4.88,0,0,1,3.83-1.87,4.38,4.38,0,0,1,3.52,1.57,6.28,6.28,0,0,1,1.33,4.2c0,0.07,0,.21,0,0.42s0,0.35,0,.44h-8.66a6,6,0,0,0,1.16,3.8,3.67,3.67,0,0,0,3,1.4,7,7,0,0,0,2.11-.28,11,11,0,0,0,1.87-.81l0.24,1.06A8,8,0,0,1,129.61,546.59Zm-4.06-7.46h7.08a4.94,4.94,0,0,0-.9-3.18,3,3,0,0,0-2.46-1.11A3.17,3.17,0,0,0,126.7,536,5.57,5.57,0,0,0,125.55,539.13Z"/><path class="cls-2" d="M95.64,574.46a8,8,0,0,1-2.66-.41,4.7,4.7,0,0,1-1.61-.83l0.53-1.17a5.68,5.68,0,0,0,3.6,1.2,4.14,4.14,0,0,0,2.87-.95,3.42,3.42,0,0,0,1.06-2.69,4.35,4.35,0,0,0-.26-1.57,2.93,2.93,0,0,0-.7-1.09,3.52,3.52,0,0,0-1.1-.69,5.93,5.93,0,0,0-1.36-.38,13.89,13.89,0,0,0-1.59-.14H93.75v-1.27h0.5q0.64,0,1.15-.08a10.29,10.29,0,0,0,1.09-.19,3.59,3.59,0,0,0,1-.37,3.71,3.71,0,0,0,.77-0.58,2.22,2.22,0,0,0,.53-0.87,3.62,3.62,0,0,0,.18-1.19q0-3-3.31-3a6.91,6.91,0,0,0-2.13.32,4.38,4.38,0,0,0-1.62.89l-0.52-1.18Q92.83,557,96.05,557a5.07,5.07,0,0,1,1.57.24A4.63,4.63,0,0,1,99,558a3.28,3.28,0,0,1,1,1.25,4.12,4.12,0,0,1,.37,1.77,3.88,3.88,0,0,1-3,4.11,4.26,4.26,0,0,1,3.49,4.47,4.53,4.53,0,0,1-1.42,3.55A5.39,5.39,0,0,1,95.64,574.46Z"/><path class="cls-2" d="M111.67,573.83a4.79,4.79,0,0,1-2.51.65,4.69,4.69,0,0,1-4.28-2.49,9.68,9.68,0,0,1-1-2.81,17.9,17.9,0,0,1-.33-3.63A12.5,12.5,0,0,1,105,559a4.64,4.64,0,0,1,4.18-2.33,4.59,4.59,0,0,1,4.16,2.32,12.65,12.65,0,0,1,1.42,6.59,18.21,18.21,0,0,1-.33,3.63,9.71,9.71,0,0,1-1,2.81A4.86,4.86,0,0,1,111.67,573.83Zm-2.52-.66a3.18,3.18,0,0,0,2.8-2.08,12.37,12.37,0,0,0,1.07-5.6A12,12,0,0,0,112,560a2.93,2.93,0,0,0-5.59,0,12,12,0,0,0-1.05,5.51,12.35,12.35,0,0,0,1.06,5.59A3.16,3.16,0,0,0,109.15,573.17Z"/><path class="cls-2" d="M117.72,579.74v-18H119l0.13,1.77a6.76,6.76,0,0,1,1.78-1.5,4.27,4.27,0,0,1,2.1-.5,4.65,4.65,0,0,1,4,1.76,7.89,7.89,0,0,1,1.32,4.83,7.17,7.17,0,0,1-1.4,4.57,4.55,4.55,0,0,1-3.78,1.78,4.87,4.87,0,0,1-2.31-.58,4.68,4.68,0,0,1-1.72-1.52q0.06,1.4.06,2.75v4.52Zm5.3-6.42a3.18,3.18,0,0,0,1.71-.47,3.45,3.45,0,0,0,1.19-1.24,6.39,6.39,0,0,0,.66-1.69,8,8,0,0,0,.22-1.9,8.23,8.23,0,0,0-.22-1.91,6.46,6.46,0,0,0-.65-1.68,3.37,3.37,0,0,0-1.2-1.24,3.26,3.26,0,0,0-1.74-.46,4.06,4.06,0,0,0-1.82.38,3,3,0,0,0-1.21,1.08,5,5,0,0,0-.65,1.6,9.14,9.14,0,0,0-.2,2,11.62,11.62,0,0,0,.19,2.26,5.56,5.56,0,0,0,.63,1.72,2.84,2.84,0,0,0,1.21,1.14A4.16,4.16,0,0,0,123,573.32Z"/><path class="cls-2" d="M129.49,574.2l4.64-6.3-4.49-6.14h1.57l3.63,5.13,3.61-5.13H140l-4.48,6.18,4.57,6.25h-1.51l-3.78-5.28-3.77,5.28h-1.59Z"/><polygon class="cls-3" points="199.67 505.73 199.67 504.73 175.93 504.73 175.93 539.59 153.19 539.59 153.19 540.59 175.93 540.59 175.93 575.45 199.67 575.45 199.67 574.45 176.93 574.45 176.93 505.73 199.67 505.73"/><path class="cls-4" d="M457.12,68.29L449.82,48h1.93l4.6,13.06q0.27,0.88.61,1.83t0.58,1.71q0.24,0.76.5,1.8a9.19,9.19,0,0,1,.28-1.06q0.18-.57.61-1.83T459.77,61q1-3.16,2.37-6.67t2.27-6.3h2L459,68.29h-1.87Z"/><path class="cls-4" d="M474,68.62a6.2,6.2,0,0,1-4.91-2.07,8.2,8.2,0,0,1-1.82-5.61,8.57,8.57,0,0,1,1.78-5.6,5.86,5.86,0,0,1,4.6-2.25A5.26,5.26,0,0,1,477.88,55a7.53,7.53,0,0,1,1.59,5c0,0.08,0,.25,0,0.5s0,0.42,0,.52H469.07a7.15,7.15,0,0,0,1.39,4.55,4.4,4.4,0,0,0,3.59,1.68,8.44,8.44,0,0,0,2.53-.34,13.39,13.39,0,0,0,2.25-1l0.29,1.27A9.55,9.55,0,0,1,474,68.62Zm-4.87-8.95h8.5a5.94,5.94,0,0,0-1.08-3.82,3.6,3.6,0,0,0-3-1.33,3.8,3.8,0,0,0-3.08,1.42A6.69,6.69,0,0,0,469.14,59.67Z"/><path class="cls-4" d="M482.88,68.29q0-13.14,0-14.92h1.39l0.11,2.94a6.91,6.91,0,0,1,2-2.18,4.53,4.53,0,0,1,2.59-.84,8.17,8.17,0,0,1,1.2.1l-0.12,1.4a6.27,6.27,0,0,0-1-.08,4,4,0,0,0-3.18,1.49,5.24,5.24,0,0,0-1.29,3.53v8.56h-1.67Z"/><path class="cls-4" d="M496.8,68.61a3.81,3.81,0,0,1-2.75-.85,3.75,3.75,0,0,1-.87-2.77V54.61h-2.11l0.12-1,2-.19L493.65,50l1.18-.08v3.47h4.36v1.24h-4.36v10a3.14,3.14,0,0,0,.52,2.12,2.48,2.48,0,0,0,1.83.54,9,9,0,0,0,2.1-.31l0.07,1.31A14.11,14.11,0,0,1,496.8,68.61Z"/><path class="cls-4" d="M502,50.32V48h1.69v2.29H502Zm0,18V53.37h1.7V68.29H502Z"/><path class="cls-4" d="M514.08,68.62a6.62,6.62,0,0,1-3.76-1.06,6.52,6.52,0,0,1-2.37-2.77,9.1,9.1,0,0,1-.78-3.81,9.64,9.64,0,0,1,.46-3,8.12,8.12,0,0,1,1.31-2.51,6,6,0,0,1,2.19-1.72,6.9,6.9,0,0,1,3-.63,8.28,8.28,0,0,1,2.14.29,4.66,4.66,0,0,1,1.59.68l-0.53,1.27a6.66,6.66,0,0,0-3.32-.79,4.42,4.42,0,0,0-3.69,1.76A7.45,7.45,0,0,0,509,61a7.09,7.09,0,0,0,1.35,4.51,4.45,4.45,0,0,0,3.7,1.72,8.84,8.84,0,0,0,3.51-.82l0.26,1.21a4.79,4.79,0,0,1-1.66.74A8.1,8.1,0,0,1,514.08,68.62Z"/><path class="cls-4" d="M525,68.62a5.09,5.09,0,0,1-3.38-1.06,3.74,3.74,0,0,1-1.27-3,4,4,0,0,1,.5-2,3.8,3.8,0,0,1,1.46-1.4,8.64,8.64,0,0,1,2.19-.84,17.9,17.9,0,0,1,2.87-.42l2.59-.18V58a3.73,3.73,0,0,0-.78-2.58,3.24,3.24,0,0,0-2.51-.87,9,9,0,0,0-4.42,1.13L522,55.08c-0.13-.3-0.23-0.54-0.28-0.7a7.86,7.86,0,0,1,2.21-.91,10.21,10.21,0,0,1,2.67-.37,5.36,5.36,0,0,1,3.85,1.15q1.17,1.15,1.17,4.08v10h-1.32q-0.07-.31-0.2-1.24t-0.13-1A5.7,5.7,0,0,1,525,68.62ZM525,67.27a5,5,0,0,0,3.1-1,4.81,4.81,0,0,0,1.78-2.85V60.85l-2,.16a11.6,11.6,0,0,0-4.62,1.09A2.67,2.67,0,0,0,522,64.55a2.49,2.49,0,0,0,.82,2A3.32,3.32,0,0,0,525,67.27Z"/><path class="cls-4" d="M539.42,68.61a3.82,3.82,0,0,1-2.75-.85,3.75,3.75,0,0,1-.87-2.77V47.57l1.66-.14V64.89a2.72,2.72,0,0,0,.5,1.88,2,2,0,0,0,1.5.52,8.57,8.57,0,0,0,2-.31l0.07,1.31A9.53,9.53,0,0,1,539.42,68.61Z"/><path class="cls-4" d="M550.35,68.29V48h2.45l7.5,17.12L567.6,48H570V68.29h-1.73V54.66l0.1-4.6-0.5,1.63-6.66,15.44h-1.91l-6.74-15.48L552,50l0.09,4.71V68.29h-1.73Z"/><path class="cls-4" d="M578.43,68.62A5.09,5.09,0,0,1,575,67.56a3.74,3.74,0,0,1-1.27-3,4,4,0,0,1,.5-2,3.8,3.8,0,0,1,1.46-1.4,8.64,8.64,0,0,1,2.19-.84,17.9,17.9,0,0,1,2.87-.42l2.59-.18V58a3.73,3.73,0,0,0-.78-2.58,3.24,3.24,0,0,0-2.51-.87,9,9,0,0,0-4.42,1.13l-0.25-.59c-0.13-.3-0.23-0.54-0.28-0.7a7.86,7.86,0,0,1,2.21-.91A10.21,10.21,0,0,1,580,53.1a5.36,5.36,0,0,1,3.85,1.15Q585,55.4,585,58.33v10h-1.32q-0.07-.31-0.2-1.24t-0.13-1A5.7,5.7,0,0,1,578.43,68.62Zm0.05-1.35a5,5,0,0,0,3.1-1,4.81,4.81,0,0,0,1.78-2.85V60.85l-2,.16a11.6,11.6,0,0,0-4.62,1.09,2.67,2.67,0,0,0-1.29,2.45,2.49,2.49,0,0,0,.82,2A3.32,3.32,0,0,0,578.48,67.27Z"/><path class="cls-4" d="M589.13,68.29q0-13.14,0-14.92h1.39l0.11,2.94a6.91,6.91,0,0,1,2-2.18,4.53,4.53,0,0,1,2.59-.84,8.17,8.17,0,0,1,1.2.1l-0.12,1.4a6.27,6.27,0,0,0-1-.08,4,4,0,0,0-3.18,1.49,5.24,5.24,0,0,0-1.29,3.53v8.56h-1.67Z"/><path class="cls-4" d="M600.95,75.22l-0.2-1.51h3.16a8.33,8.33,0,0,0,1.85-.18,5.5,5.5,0,0,0,1.35-.48,2.79,2.79,0,0,0,.94-0.82,5.13,5.13,0,0,0,.61-1,5.47,5.47,0,0,0,.33-1.34q0.11-.82.14-1.51t0-1.74c0,0.1,0,.08,0-0.07l-0.07-.94a6.38,6.38,0,0,1-2,2,5.47,5.47,0,0,1-2.86.7,6,6,0,0,1-2.43-.48,5.22,5.22,0,0,1-1.8-1.24,7.18,7.18,0,0,1-1.18-1.74,8.42,8.42,0,0,1-.68-2,9.4,9.4,0,0,1-.2-1.93,12.69,12.69,0,0,1,.2-2.28,8.52,8.52,0,0,1,.69-2.12A6.6,6.6,0,0,1,600,54.76a5.32,5.32,0,0,1,1.89-1.21,7.09,7.09,0,0,1,2.61-.46,5.44,5.44,0,0,1,2.53.57,6.14,6.14,0,0,1,2,1.8l0.16-2.1h1.5V67.2q0,0.9,0,1.45a14,14,0,0,1-.16,1.5,6.71,6.71,0,0,1-.39,1.55,7.22,7.22,0,0,1-.77,1.34,3.92,3.92,0,0,1-1.25,1.16,7.61,7.61,0,0,1-1.87.72,10.13,10.13,0,0,1-2.58.3h-2.74Zm3.45-8.31a4.81,4.81,0,0,0,1.8-.32,3.87,3.87,0,0,0,1.33-.84,4.85,4.85,0,0,0,.88-1.23,5.63,5.63,0,0,0,.51-1.46,8,8,0,0,0,.15-1.56V59.95a7.5,7.5,0,0,0-.26-2,5.86,5.86,0,0,0-.8-1.74,3.74,3.74,0,0,0-1.48-1.26,4.87,4.87,0,0,0-2.18-.46,4.16,4.16,0,0,0-1.82.39,3.77,3.77,0,0,0-1.33,1,6,6,0,0,0-.87,1.5,7.78,7.78,0,0,0-.5,1.75A11.51,11.51,0,0,0,599.7,61a9.81,9.81,0,0,0,.13,1.61,7.16,7.16,0,0,0,.46,1.59,5,5,0,0,0,.85,1.4,3.84,3.84,0,0,0,1.36,1A4.6,4.6,0,0,0,604.39,66.92Z"/><path class="cls-4" d="M614.8,50.32V48h1.69v2.29H614.8Zm0,18V53.37h1.7V68.29h-1.7Z"/><path class="cls-4" d="M620.68,68.29V53.37h1.47l0.23,2.3a5.59,5.59,0,0,1,2.16-1.89,6.36,6.36,0,0,1,2.92-.69,4.72,4.72,0,0,1,3.79,1.42A6.89,6.89,0,0,1,632.46,59v9.26h-1.7v-10a4.5,4.5,0,0,0-.84-2.86,3.26,3.26,0,0,0-2.55-.87,5.17,5.17,0,0,0-3.32,1,4.37,4.37,0,0,0-1.61,2.64q-0.05.64-.05,1.33v8.76h-1.7Z"/><path class="cls-4" d="M640.72,68.63a10,10,0,0,1-2.71-.35,7.11,7.11,0,0,1-2-.84L636.26,66a9.31,9.31,0,0,0,4.3,1.17q3.69,0,3.83-2.74a2.27,2.27,0,0,0-.74-1.8,9,9,0,0,0-3-1.36l-1.29-.45q-3.5-1.06-3.53-3.77a3.6,3.6,0,0,1,1.38-2.77A5.49,5.49,0,0,1,641,53.1a10.71,10.71,0,0,1,4.43.93l-0.57,1.25a11.1,11.1,0,0,0-3.89-.79,3.93,3.93,0,0,0-2.49.71,2.29,2.29,0,0,0-.91,1.91,2,2,0,0,0,.59,1.54,6.25,6.25,0,0,0,2.35,1l0.7,0.25,0.56,0.2A7.64,7.64,0,0,1,645,61.83a3.76,3.76,0,0,1,.93,2.69,3.69,3.69,0,0,1-1.46,3A6.11,6.11,0,0,1,640.72,68.63Z"/><path class="cls-4" d="M664.59,68.61a10.28,10.28,0,0,1-4.15-.8,7.74,7.74,0,0,1-3-2.21,9.8,9.8,0,0,1-1.74-3.32,14,14,0,0,1-.59-4.18,12.34,12.34,0,0,1,1.11-5.36,8.59,8.59,0,0,1,3.32-3.7,9.73,9.73,0,0,1,5.21-1.36,10.82,10.82,0,0,1,5.64,1.39l-0.83,1.35a9.11,9.11,0,0,0-4.79-1.28,7.74,7.74,0,0,0-3.35.7A6.49,6.49,0,0,0,659,51.78a9,9,0,0,0-1.44,2.87,12.12,12.12,0,0,0-.5,3.54,12.47,12.47,0,0,0,.46,3.45,8.84,8.84,0,0,0,1.38,2.83,6.28,6.28,0,0,0,2.44,2,8.19,8.19,0,0,0,3.51.71A11.76,11.76,0,0,0,669.62,66l0.35,1.4A10.1,10.1,0,0,1,664.59,68.61Z"/><path class="cls-4" d="M679.09,68.62a6.33,6.33,0,0,1-3.57-1,6.53,6.53,0,0,1-2.36-2.77,9.3,9.3,0,0,1-.81-4,9.77,9.77,0,0,1,.47-3.08,7.41,7.41,0,0,1,1.34-2.46,6.08,6.08,0,0,1,2.17-1.63,6.81,6.81,0,0,1,2.87-.59,6.25,6.25,0,0,1,5.94,3.79,9.68,9.68,0,0,1,.77,4,9.53,9.53,0,0,1-.79,4,6.4,6.4,0,0,1-2.36,2.77A6.55,6.55,0,0,1,679.09,68.62Zm0.12-1.35a4.38,4.38,0,0,0,2.76-.86,4.91,4.91,0,0,0,1.63-2.28,9.58,9.58,0,0,0,.51-3.25,8,8,0,0,0-1.22-4.64,4.24,4.24,0,0,0-3.73-1.76,4.45,4.45,0,0,0-2.78.88,5,5,0,0,0-1.68,2.3,9.28,9.28,0,0,0-.53,3.26,7.57,7.57,0,0,0,1.3,4.58A4.36,4.36,0,0,0,679.22,67.27Z"/><path class="cls-4" d="M693,68.61a3.82,3.82,0,0,1-2.75-.85,3.75,3.75,0,0,1-.87-2.77V47.57l1.66-.14V64.89a2.72,2.72,0,0,0,.5,1.88,2,2,0,0,0,1.5.52,8.57,8.57,0,0,0,2-.31l0.07,1.31A9.53,9.53,0,0,1,693,68.61Z"/><path class="cls-4" d="M700.91,68.61a3.82,3.82,0,0,1-2.75-.85,3.75,3.75,0,0,1-.87-2.77V47.57l1.66-.14V64.89a2.72,2.72,0,0,0,.5,1.88,2,2,0,0,0,1.5.52,8.57,8.57,0,0,0,2-.31l0.07,1.31A9.53,9.53,0,0,1,700.91,68.61Z"/><path class="cls-4" d="M709,68.62a5.09,5.09,0,0,1-3.38-1.06,3.74,3.74,0,0,1-1.27-3,4,4,0,0,1,.5-2,3.8,3.8,0,0,1,1.46-1.4,8.64,8.64,0,0,1,2.19-.84,17.9,17.9,0,0,1,2.87-.42l2.59-.18V58a3.73,3.73,0,0,0-.78-2.58,3.24,3.24,0,0,0-2.51-.87,9,9,0,0,0-4.42,1.13L706,55.08c-0.13-.3-0.23-0.54-0.28-0.7a7.86,7.86,0,0,1,2.21-.91,10.21,10.21,0,0,1,2.67-.37,5.36,5.36,0,0,1,3.85,1.15q1.17,1.15,1.17,4.08v10h-1.32q-0.07-.31-0.2-1.24t-0.13-1A5.7,5.7,0,0,1,709,68.62Zm0.05-1.35a5,5,0,0,0,3.1-1A4.81,4.81,0,0,0,714,63.39V60.85L712,61a11.6,11.6,0,0,0-4.62,1.09,2.67,2.67,0,0,0-1.29,2.45,2.49,2.49,0,0,0,.82,2A3.32,3.32,0,0,0,709.1,67.27Z"/><path class="cls-4" d="M719.73,74.94V53.37h1.51l0.15,2.12a8.11,8.11,0,0,1,2.13-1.8,5.13,5.13,0,0,1,2.53-.6,5.58,5.58,0,0,1,4.77,2.12A9.47,9.47,0,0,1,732.4,61a8.61,8.61,0,0,1-1.67,5.48,5.46,5.46,0,0,1-4.53,2.13,5.84,5.84,0,0,1-2.78-.69,5.63,5.63,0,0,1-2.07-1.83q0.07,1.67.07,3.29v5.42Zm6.36-7.71a3.82,3.82,0,0,0,2.06-.56,4.16,4.16,0,0,0,1.43-1.48,7.67,7.67,0,0,0,.8-2,9.61,9.61,0,0,0,.27-2.28,9.86,9.86,0,0,0-.26-2.29,7.78,7.78,0,0,0-.78-2,4,4,0,0,0-1.44-1.49,3.91,3.91,0,0,0-2.08-.56,4.88,4.88,0,0,0-2.19.46,3.59,3.59,0,0,0-1.46,1.3,6,6,0,0,0-.78,1.92,10.91,10.91,0,0,0-.25,2.42,14,14,0,0,0,.23,2.71,6.71,6.71,0,0,0,.76,2.06,3.39,3.39,0,0,0,1.45,1.37A5,5,0,0,0,726.08,67.23Z"/><path class="cls-4" d="M740.08,68.63a10,10,0,0,1-2.71-.35,7.11,7.11,0,0,1-2-.84L735.62,66a9.31,9.31,0,0,0,4.3,1.17q3.69,0,3.83-2.74a2.27,2.27,0,0,0-.74-1.8,9,9,0,0,0-3-1.36l-1.29-.45q-3.5-1.06-3.53-3.77a3.6,3.6,0,0,1,1.38-2.77,5.49,5.49,0,0,1,3.74-1.21,10.71,10.71,0,0,1,4.43.93l-0.57,1.25a11.1,11.1,0,0,0-3.89-.79,3.93,3.93,0,0,0-2.49.71,2.29,2.29,0,0,0-.91,1.91,2,2,0,0,0,.59,1.54,6.25,6.25,0,0,0,2.35,1l0.7,0.25,0.56,0.2a7.64,7.64,0,0,1,3.29,1.71,3.76,3.76,0,0,1,.93,2.69,3.69,3.69,0,0,1-1.46,3A6.11,6.11,0,0,1,740.08,68.63Z"/><path class="cls-4" d="M754.62,68.62a6.2,6.2,0,0,1-4.91-2.07,8.2,8.2,0,0,1-1.82-5.61,8.57,8.57,0,0,1,1.78-5.6,5.86,5.86,0,0,1,4.6-2.25A5.26,5.26,0,0,1,758.49,55a7.53,7.53,0,0,1,1.59,5c0,0.08,0,.25,0,0.5s0,0.42,0,.52H749.68a7.15,7.15,0,0,0,1.39,4.55,4.4,4.4,0,0,0,3.59,1.68,8.44,8.44,0,0,0,2.53-.34,13.39,13.39,0,0,0,2.25-1l0.29,1.27A9.55,9.55,0,0,1,754.62,68.62Zm-4.87-8.95h8.5a5.94,5.94,0,0,0-1.08-3.82,3.6,3.6,0,0,0-3-1.33,3.8,3.8,0,0,0-3.08,1.42A6.69,6.69,0,0,0,749.75,59.67Z"/><path class="cls-3" d="M606.25,306.12h-6v1h6v-1h0Zm-12,0h-6v1h6v-1h0Zm-12,0h-6v1h6v-1h0Zm-12,0h-6v1h6v-1h0Zm-12,0h-6v1h6v-1h0Zm-12,0h-6v1h6v-1h0Zm-12,0h-6v1h6v-1h0Zm-12,0h-6v1h6v-1h0Zm-12,0h-6v1h6v-1h0Zm-12,0h-6v1h6v-1h0Zm-12,0h-6v1h6v-1h0Zm-12,0h-6v1h6v-1h0Zm-12,0h-6v1h6v-1h0Zm-12,0h-6v1h6v-1h0Zm-12,0h-6v1h6v-1h0Zm-12,0h-6v1h6v-1h0Zm-12,0h-6v1h6v-1h0Zm-12,0h-6v1h6v-1h0Zm-12,0h-6v1h6v-1h0Zm-12,0h-6v1h6v-1h0Zm-12,0h-6v1h6v-1h0Zm-12,0h-6v1h6v-1h0Zm-12,0h-6v1h6v-1h0Zm-12,0h-6v1h6v-1h0Zm-12,0h-6v1h6v-1h0Zm-12,0h-6v1h6v-1h0Zm-12,0h-6v1h6v-1h0Zm-12,0h-6v1h6v-1h0Zm-12,0h-6v1h6v-1h0Zm-12,0h-6v1h6v-1h0Zm-12,0h-6v1h6v-1h0Zm-12,0h-6v1h6v-1h0Zm-12,0h-6v1h6v-1h0Zm-10.06.94h-1v6h1v-6h0Zm0,12h-1v6h1v-6h0Zm0,12h-1v6h1v-6h0Zm0,12h-1v6h1v-6h0Zm0,12h-1v6h1v-6h0Zm0,12h-1v6h1v-6h0Zm0,12h-1v6h1v-6h0Zm0,12h-1v6h1v-6h0Zm0,12h-1v6h1v-6h0Zm0,12h-1v6h1v-6h0Zm0,12h-1v6h1v-6h0Zm0,12h-1v6h1v-6h0Zm0,12h-1v6h1v-6h0Zm0,12h-1v6h1v-6h0Zm0,12h-1v6h1v-6h0Zm0,12h-1v6h1v-6h0Zm0,12h-1v6h1v-6h0Zm0,12h-1v6h1v-6h0Zm0,12h-1v3.83h2.17v-1h-1.17v-2.83h0Zm13.17,2.83h-6v1h6v-1h0Zm12,0h-6v1h6v-1h0Zm12,0h-6v1h6v-1h0Zm12,0h-6v1h6v-1h0Zm12,0h-6v1h6v-1h0Zm12,0h-6v1h6v-1h0Zm12,0h-6v1h6v-1h0Zm12,0h-6v1h6v-1h0Zm12,0h-6v1h6v-1h0Zm12,0h-6v1h6v-1h0Zm12,0h-6v1h6v-1h0Zm12,0h-6v1h6v-1h0Zm12,0h-6v1h6v-1h0Zm12,0h-6v1h6v-1h0Zm12,0h-6v1h6v-1h0Zm12,0h-6v1h6v-1h0Zm12,0h-6v1h6v-1h0Zm12,0h-6v1h6v-1h0Zm12,0h-6v1h6v-1h0Zm12,0h-6v1h6v-1h0Zm12,0h-6v1h6v-1h0Zm12,0h-6v1h6v-1h0Zm12,0h-6v1h6v-1h0Zm12,0h-6v1h6v-1h0Zm12,0h-6v1h6v-1h0Zm12,0h-6v1h6v-1h0Zm12,0h-6v1h6v-1h0Zm12,0h-6v1h6v-1h0Zm12,0h-6v1h6v-1h0Zm12,0h-6v1h6v-1h0Zm12,0h-6v1h6v-1h0Zm12,0h-6v1h6v-1h0Zm8.89-2.11h-1v2.11h-1.89v1h2.89v-3.11h0Zm0-12h-1v6h1v-6h0Zm0-12h-1v6h1v-6h0Zm0-12h-1v6h1v-6h0Zm0-12h-1v6h1v-6h0Zm0-12h-1v6h1v-6h0Zm0-12h-1v6h1v-6h0Zm0-12h-1v6h1v-6h0Zm0-12h-1v6h1v-6h0Zm0-12h-1v6h1v-6h0Zm0-12h-1v6h1v-6h0Zm0-12h-1v6h1v-6h0Zm0-12h-1v6h1v-6h0Zm0-12h-1v6h1v-6h0Zm0-12h-1v6h1v-6h0Zm0-12h-1v6h1v-6h0Zm0-12h-1v6h1v-6h0Zm0-12h-1v6h1v-6h0Zm0-12h-1v6h1v-6h0Z"/><rect class="cls-5" x="234.43" y="329.36" width="348.58" height="174.29"/><path class="cls-4" d="M348.09,403.78V385.5h11.08L359,388.18h-7.56v4.72h7.19v2.68h-7.19v5.5h7.84l-0.11,2.7H348.09Z"/><path class="cls-4" d="M367,404a7.07,7.07,0,0,1-2.34-.33,3,3,0,0,1-1.47-1.05,4.37,4.37,0,0,1-.75-1.72,12.19,12.19,0,0,1-.21-2.48V385l3.27-.21v13.52a4.93,4.93,0,0,0,.44,2.5,1.9,1.9,0,0,0,1.7.66,11.57,11.57,0,0,0,1.58-.14l0.09,2.33-0.31.06-0.56.11-0.68.09A7.21,7.21,0,0,1,367,404Z"/><path class="cls-4" d="M377.16,404a6.83,6.83,0,0,1-5.15-1.9,7.25,7.25,0,0,1-1.84-5.26,7.51,7.51,0,0,1,1.74-5.21,6.07,6.07,0,0,1,4.73-1.95,5.56,5.56,0,0,1,4.4,1.77,6.84,6.84,0,0,1,1.57,4.71c0,0.14,0,.37,0,0.69s0,0.55,0,.7h-9.12a4.32,4.32,0,0,0,1.05,3,3.63,3.63,0,0,0,2.76,1.05,8.65,8.65,0,0,0,4.32-1.17l0.46,2.32A9.14,9.14,0,0,1,377.16,404Zm-3.63-8.51h6a3.87,3.87,0,0,0-.76-2.57,2.62,2.62,0,0,0-2.11-.9,2.88,2.88,0,0,0-2.13.87A4,4,0,0,0,373.53,395.53Z"/><path class="cls-4" d="M385.26,403.78V390.07h2.65l0.37,1.75q0.25-.31.48-0.56a5.21,5.21,0,0,1,.64-0.55,4.26,4.26,0,0,1,.86-0.51,5.71,5.71,0,0,1,1.12-.34,7.08,7.08,0,0,1,1.43-.14,4.6,4.6,0,0,1,2.61.66,3.75,3.75,0,0,1,1.38,1.55,4.9,4.9,0,0,1,1.91-1.64,5.86,5.86,0,0,1,2.61-.57,4.24,4.24,0,0,1,3.46,1.34,6.09,6.09,0,0,1,1.1,4v8.76h-3.28V396a7,7,0,0,0-.44-2.9,1.71,1.71,0,0,0-1.69-.89,2.84,2.84,0,0,0-2.75,1.72,6.1,6.1,0,0,0-.47,1.83v8H394v-7.94a5.94,5.94,0,0,0-.49-2.73,1.82,1.82,0,0,0-1.76-.9,3,3,0,0,0-1.78.52,3.32,3.32,0,0,0-1.14,1.37,13.73,13.73,0,0,0-.29,3v6.65h-3.27Z"/><path class="cls-4" d="M415.46,404a6.83,6.83,0,0,1-5.15-1.9,7.25,7.25,0,0,1-1.84-5.26,7.51,7.51,0,0,1,1.74-5.21,6.07,6.07,0,0,1,4.73-1.95,5.56,5.56,0,0,1,4.4,1.77,6.84,6.84,0,0,1,1.57,4.71c0,0.14,0,.37,0,0.69s0,0.55,0,.7h-9.12a4.32,4.32,0,0,0,1.05,3,3.63,3.63,0,0,0,2.76,1.05,8.65,8.65,0,0,0,4.32-1.17l0.46,2.32A9.14,9.14,0,0,1,415.46,404Zm-3.63-8.51h6a3.87,3.87,0,0,0-.76-2.57,2.62,2.62,0,0,0-2.11-.9,2.88,2.88,0,0,0-2.13.87A4,4,0,0,0,411.83,395.53Z"/><path class="cls-4" d="M423.56,403.78V390.07h2.63l0.36,1.74a6.49,6.49,0,0,1,4.66-2.07,4.49,4.49,0,0,1,3.59,1.38,6,6,0,0,1,1.19,4v8.67h-3.28v-8.28a4.77,4.77,0,0,0-.54-2.48,2.06,2.06,0,0,0-1.88-.82,3.62,3.62,0,0,0-1.94.54,3.3,3.3,0,0,0-1.28,1.37,13.85,13.85,0,0,0-.24,3v6.68h-3.27Z"/><path class="cls-4" d="M444.69,404a7,7,0,0,1-2.33-.33,3,3,0,0,1-1.45-1,4.44,4.44,0,0,1-.74-1.68,11.08,11.08,0,0,1-.22-2.39v-6.48H437.7l0.13-1.77,2.35-.21,1-3.72h2v3.73h3.41v2h-3.41v6.54a4.11,4.11,0,0,0,.45,2.22,1.87,1.87,0,0,0,1.66.66,10.07,10.07,0,0,0,1.52-.12l0.09,2.35-0.31.06-0.54.1-0.66.08Q445,404,444.69,404Z"/><path class="cls-4" d="M454.29,403.78l6.73-18.3h3.68l6.63,18.3h-3.47L466,398.62h-6.4l-1.82,5.17h-3.53Zm6.2-7.69h4.69q-2.25-7.2-2.31-7.44Z"/><path class="cls-4" d="M317.35,430.71a2.93,2.93,0,0,1,2.88-2.12q2.61,0,2.95,3.76c0,0.47.06,1,.06,1.57v8.77h-2.08v-8.51a8.35,8.35,0,0,0-.32-3.05,1.46,1.46,0,0,0-.59-0.69,1.7,1.7,0,0,0-.59-0.1,1.62,1.62,0,0,0-1.56,1.22,8.23,8.23,0,0,0-.3,2.65v8.49h-1.91v-8.35q0-2.76-.65-3.58a1.16,1.16,0,0,0-1-.42,1.35,1.35,0,0,0-1.08.55,4.31,4.31,0,0,0-.84,2.81v9h-2.08V429h1.81l0.14,1.81a4.53,4.53,0,0,1,1-1.58,2.15,2.15,0,0,1,1.59-.64,2.44,2.44,0,0,1,1.62.56A3,3,0,0,1,317.35,430.71Z"/><path class="cls-4" d="M334.95,433.26q0-2.93-2.48-2.93a13.74,13.74,0,0,0-2.59.27,10.64,10.64,0,0,0-2,.52l-0.54-1.67a15.38,15.38,0,0,1,4.85-.86,5.91,5.91,0,0,1,3.65,1,3.75,3.75,0,0,1,1.37,3.2v9.87h-1.88l-0.3-1.58a6.42,6.42,0,0,1-2.05,1.35,6.16,6.16,0,0,1-2.45.54,4.13,4.13,0,0,1-2.88-1A3.77,3.77,0,0,1,326.5,439a3,3,0,0,1,1.5-2.79,6.54,6.54,0,0,1,2.15-.85q1.14-.23,3-0.46l1.82-.21v-1.45Zm0,6.38v-3.5l-1.86.26a15.13,15.13,0,0,0-2.7.55,2.21,2.21,0,0,0-1.67,2.13,2.25,2.25,0,0,0,.6,1.65,2.2,2.2,0,0,0,1.65.61A5.38,5.38,0,0,0,334.95,439.64Z"/><path class="cls-4" d="M346.47,442.69H344.2V429h1.86l0.19,2.53a5.69,5.69,0,0,1,2.2-2.2,6.29,6.29,0,0,1,3.08-.75h1.1v2.11H351.2a5.14,5.14,0,0,0-3.46,1.09,4.1,4.1,0,0,0-1.27,3.29v7.61Z"/><path class="cls-4" d="M366.12,440.07a4.17,4.17,0,0,1-1.5,1.85,4,4,0,0,1-2.4.77,4.86,4.86,0,0,1-4.11-2,8,8,0,0,1-1.51-4.92q0-3.9,1.95-5.82a5.19,5.19,0,0,1,3.78-1.35,4.25,4.25,0,0,1,3.78,2.27l0.08-1.86h2.31q-0.11,3.06-.11,8.13v3.67q0,4.42-1.92,6a7.73,7.73,0,0,1-4.17,1.47,28.05,28.05,0,0,1-3.25.16l-0.19-1.75a16.37,16.37,0,0,0,3.9-.33,5.34,5.34,0,0,0,1.72-.72,3.59,3.59,0,0,0,.92-1,7.24,7.24,0,0,0,.71-3.63v-0.91ZM365,431.42a2.75,2.75,0,0,0-1-.79,3.62,3.62,0,0,0-1.5-.29,3.56,3.56,0,0,0-1.5.3,3,3,0,0,0-1.64,1.88,8.4,8.4,0,0,0-.46,2.7,13.5,13.5,0,0,0,.11,2,4.86,4.86,0,0,0,1,2.44,2.88,2.88,0,0,0,2.33,1,3.21,3.21,0,0,0,3.26-2.15,6.42,6.42,0,0,0,.47-2.43,16.89,16.89,0,0,0-.09-2,7.11,7.11,0,0,0-.34-1.47A4.05,4.05,0,0,0,365,431.42Z"/><path class="cls-4" d="M373.56,430.75V429h6.18v11.95h3.92v1.75H373.12v-1.75h4.34v-10.2h-3.91Zm3.53-5.35v-1.24a1,1,0,0,1,.51-0.79,1.64,1.64,0,0,1,2,0,1,1,0,0,1,.5.79v1.24a1,1,0,0,1-.5.79,1.64,1.64,0,0,1-2,0A1,1,0,0,1,377.09,425.39Z"/><path class="cls-4" d="M394.61,428.59q4.26,0,4.26,5.39v8.71H396.6v-8.44a10,10,0,0,0-.15-2.07,2.77,2.77,0,0,0-.45-1,2.47,2.47,0,0,0-2.08-.82,3.71,3.71,0,0,0-2.47.85,2.78,2.78,0,0,0-1,2.25v9.26h-2.27V429h2.08l0.12,1.49A4.87,4.87,0,0,1,394.61,428.59Z"/><path class="cls-4" d="M410.89,432.33h-3.76v-3.74h3.76v3.74Zm0,8.56h-3.76v-3.76h3.76v3.76Z"/><path class="cls-4" d="M434.69,426.63a20.26,20.26,0,0,0,4.19-2.56h2.35v16.8h3.92v1.82H434.7v-1.82h4.19V426.59l-1.75,1a16.43,16.43,0,0,1-2.46,1.25v-2.26Z"/><path class="cls-4" d="M457.47,442.23a5.18,5.18,0,0,1-5.47,0,5.8,5.8,0,0,1-1.93-2.13,14,14,0,0,1-1.46-6.73q0-5,2-7.58a5,5,0,0,1,1.75-1.47,5.59,5.59,0,0,1,4.84,0A5.9,5.9,0,0,1,460,427.8a16.57,16.57,0,0,1,.88,5.57,14,14,0,0,1-1.46,6.73A5.81,5.81,0,0,1,457.47,442.23Zm-1-15.88a2.6,2.6,0,0,0-1.8-.66,2.46,2.46,0,0,0-1.92,1q-1.65,2-1.65,6.67a13.72,13.72,0,0,0,.9,5.4Zm1.15,1.75-4.42,12.41a2.59,2.59,0,0,0,1.73.57,2.43,2.43,0,0,0,1.89-1q1.65-2,1.65-6.65A14.1,14.1,0,0,0,457.57,428.09Z"/><path class="cls-4" d="M470.58,443a4.48,4.48,0,0,1-2.35-.61,4.22,4.22,0,0,1-1.56-1.57v7.13l-2.27.25V429h2.27v1.88a4.84,4.84,0,0,1,1.6-1.66,4.11,4.11,0,0,1,2.26-.64,5,5,0,0,1,4.81,2.8,9.23,9.23,0,0,1,.9,4.22,8.45,8.45,0,0,1-1.88,5.94A4.87,4.87,0,0,1,470.58,443Zm-3.93-7.24q0,5.49,3.84,5.49,3.46,0,3.46-5.49,0-3-.93-4.24a3.07,3.07,0,0,0-2.57-1.19q-3.19,0-3.69,3.7A12.1,12.1,0,0,0,466.65,435.77Z"/><path class="cls-4" d="M479.73,429h2.6l3.26,5.27,3.26-5.27h2.36L487,435.64l4.36,7.05h-2.52l-3.34-5.45L482,442.69h-2.5l4.49-7Z"/><path class="cls-4" d="M498.21,446.6l0.95-7.48h3.39l-2.1,7.48h-2.25Zm4.59-14.37h-3.73v-3.76h3.73v3.76Z"/><path class="cls-3" d="M594.25,503.65h-6v1h6v-1h0Zm-12,0h-6v1h6v-1h0Zm-12,0h-6v1h6v-1h0Zm-12,0h-6v1h6v-1h0Zm-12,0h-6v1h6v-1h0Zm-12,0h-6v1h6v-1h0Zm-12,0h-6v1h6v-1h0Zm-12,0h-6v1h6v-1h0Zm-12,0h-6v1h6v-1h0Zm-12,0h-6v1h6v-1h0Zm-12,0h-6v1h6v-1h0Zm-12,0h-6v1h6v-1h0Zm-12,0h-6v1h6v-1h0Zm-12,0h-6v1h6v-1h0Zm-12,0h-6v1h6v-1h0Zm-12,0h-6v1h6v-1h0Zm-12,0h-6v1h6v-1h0Zm-12,0h-6v1h6v-1h0Zm-12,0h-6v1h6v-1h0Zm-12,0h-6v1h6v-1h0Zm-12,0h-6v1h6v-1h0Zm-12,0h-6v1h6v-1h0Zm-12,0h-6v1h6v-1h0Zm-12,0h-6v1h6v-1h0Zm-12,0h-6v1h6v-1h0Zm-12,0h-6v1h6v-1h0Zm-12,0h-6v1h6v-1h0Zm-12,0h-6v1h6v-1h0Zm-12,0h-6v1h6v-1h0Zm-12,0h-6v1h6v-1h0Zm-12,0h-6v1h6v-1h0Zm-12,0h-6v1h6v-1h0Zm-10.06.94h-1v6h1v-6h0Zm0,12h-1v6h1v-6h0Zm0,12h-1v6h1v-6h0Zm0,12h-1v6h1v-6h0Zm0,12h-1v6h1v-6h0Zm0,12h-1v6h1v-6h0Zm0,12h-1v6h1v-6h0Zm0,12h-1v6h1v-6h0Zm0,12h-1v6h1v-6h0Zm0,12h-1v6h1v-6h0Zm0,12h-1v6h1v-6h0Zm0,12h-1v6h1v-6h0Zm0,12h-1v6h1v-6h0Zm0,12h-1v6h1v-6h0Zm0,12h-1v6h1v-6h0Zm0,12h-1v6h1v-6h0Zm0,12h-1v6h1v-6h0Zm0,12h-1v6h1v-6h0Zm0,12h-1v6h1v-6h0Zm0,12h-1v6h1v-6h0Zm0,12h-1v6h1v-6h0Zm0,12h-1v6h1v-6h0Zm0,12h-1v6h1v-6h0Zm0,12h-1v6h1v-6h0Zm0,12h-1v6h1v-6h0Zm0,12h-1v6h1v-6h0Zm4.22,11.78h-5.22v0.22h0v0h0v0.78h5.22v-1h0Zm12,0h-6v1h6v-1h0Zm12,0h-6v1h6v-1h0Zm12,0h-6v1h6v-1h0Zm12,0h-6v1h6v-1h0Zm12,0h-6v1h6v-1h0Zm12,0h-6v1h6v-1h0Zm12,0h-6v1h6v-1h0Zm12,0h-6v1h6v-1h0Zm12,0h-6v1h6v-1h0Zm12,0h-6v1h6v-1h0Zm12,0h-6v1h6v-1h0Zm12,0h-6v1h6v-1h0Zm12,0h-6v1h6v-1h0Zm12,0h-6v1h6v-1h0Zm12,0h-6v1h6v-1h0Zm12,0h-6v1h6v-1h0Zm12,0h-6v1h6v-1h0Zm12,0h-6v1h6v-1h0Zm12,0h-6v1h6v-1h0Zm12,0h-6v1h6v-1h0Zm12,0h-6v1h6v-1h0Zm12,0h-6v1h6v-1h0Zm12,0h-6v1h6v-1h0Zm12,0h-6v1h6v-1h0Zm12,0h-6v1h6v-1h0Zm12,0h-6v1h6v-1h0Zm12,0h-6v1h6v-1h0Zm12,0h-6v1h6v-1h0Zm12,0h-6v1h6v-1h0Zm12,0h-6v1h6v-1h0Zm12,0h-6v1h6v-1h0Zm12,0h-6v1h6v-1h0Zm5.84-5.16h-1v6h1v-6h0Zm0-12h-1v6h1v-6h0Zm0-12h-1v6h1v-6h0Zm0-12h-1v6h1v-6h0Zm0-12h-1v6h1v-6h0Zm0-12h-1v6h1v-6h0Zm0-12h-1v6h1v-6h0Zm0-12h-1v6h1v-6h0Zm0-12h-1v6h1v-6h0Zm0-12h-1v6h1v-6h0Zm0-12h-1v6h1v-6h0Zm0-12h-1v6h1v-6h0Zm0-12h-1v6h1v-6h0Zm0-12h-1v6h1v-6h0Zm0-12h-1v6h1v-6h0Zm0-12h-1v6h1v-6h0Zm0-12h-1v6h1v-6h0Zm0-12h-1v6h1v-6h0Zm0-12h-1v6h1v-6h0Zm0-12h-1v6h1v-6h0Zm0-12h-1v6h1v-6h0Zm0-12h-1v6h1v-6h0Zm0-12h-1v6h1v-6h0Zm0-12h-1v6h1v-6h0Zm0-12h-1v6h1v-6h0Zm0-12h-1v6h1v-6h0Zm0-7.57h-6v1h5v0.57h1v-1.57h0Z"/><rect class="cls-5" x="234.43" y="573.37" width="348.58" height="174.29"/><path class="cls-4" d="M348.46,647.79V629.5h11.08l-0.14,2.68h-7.56v4.72H359v2.68h-7.19v5.5h7.84l-0.11,2.7H348.46Z"/><path class="cls-4" d="M367.33,648a7.07,7.07,0,0,1-2.34-.33,3,3,0,0,1-1.47-1.05,4.37,4.37,0,0,1-.75-1.72,12.19,12.19,0,0,1-.21-2.48V629l3.27-.21v13.52a4.93,4.93,0,0,0,.44,2.5,1.9,1.9,0,0,0,1.7.66,11.57,11.57,0,0,0,1.58-.14l0.09,2.33-0.31.06-0.56.11-0.68.09A7.21,7.21,0,0,1,367.33,648Z"/><path class="cls-4" d="M377.53,648.05a6.83,6.83,0,0,1-5.15-1.9,7.25,7.25,0,0,1-1.84-5.26,7.51,7.51,0,0,1,1.74-5.21,6.07,6.07,0,0,1,4.73-1.95,5.56,5.56,0,0,1,4.4,1.77,6.84,6.84,0,0,1,1.57,4.71c0,0.14,0,.37,0,0.69s0,0.55,0,.7h-9.12a4.32,4.32,0,0,0,1.05,3,3.63,3.63,0,0,0,2.76,1.05,8.65,8.65,0,0,0,4.32-1.17l0.46,2.32A9.14,9.14,0,0,1,377.53,648.05Zm-3.63-8.51h6a3.87,3.87,0,0,0-.76-2.57,2.62,2.62,0,0,0-2.11-.9,2.88,2.88,0,0,0-2.13.87A4,4,0,0,0,373.89,639.54Z"/><path class="cls-4" d="M385.63,647.79V634.07h2.65l0.37,1.75q0.25-.31.48-0.56a5.21,5.21,0,0,1,.64-0.55,4.26,4.26,0,0,1,.86-0.51,5.71,5.71,0,0,1,1.12-.34,7.08,7.08,0,0,1,1.43-.14,4.6,4.6,0,0,1,2.61.66,3.75,3.75,0,0,1,1.38,1.55,4.9,4.9,0,0,1,1.91-1.64,5.86,5.86,0,0,1,2.61-.57,4.24,4.24,0,0,1,3.46,1.34,6.09,6.09,0,0,1,1.1,4v8.76H403V640a7,7,0,0,0-.44-2.9,1.71,1.71,0,0,0-1.69-.89,2.84,2.84,0,0,0-2.75,1.72,6.1,6.1,0,0,0-.47,1.83v8h-3.27v-7.94a5.94,5.94,0,0,0-.49-2.73,1.82,1.82,0,0,0-1.76-.9,3,3,0,0,0-1.78.52,3.32,3.32,0,0,0-1.14,1.37,13.73,13.73,0,0,0-.29,3v6.65h-3.27Z"/><path class="cls-4" d="M415.82,648.05a6.83,6.83,0,0,1-5.15-1.9,7.25,7.25,0,0,1-1.84-5.26,7.51,7.51,0,0,1,1.74-5.21,6.07,6.07,0,0,1,4.73-1.95,5.56,5.56,0,0,1,4.4,1.77,6.84,6.84,0,0,1,1.57,4.71c0,0.14,0,.37,0,0.69s0,0.55,0,.7h-9.12a4.32,4.32,0,0,0,1.05,3,3.63,3.63,0,0,0,2.76,1.05,8.65,8.65,0,0,0,4.32-1.17l0.46,2.32A9.14,9.14,0,0,1,415.82,648.05Zm-3.63-8.51h6a3.87,3.87,0,0,0-.76-2.57,2.62,2.62,0,0,0-2.11-.9,2.88,2.88,0,0,0-2.13.87A4,4,0,0,0,412.19,639.54Z"/><path class="cls-4" d="M423.92,647.79V634.07h2.63l0.36,1.74a6.49,6.49,0,0,1,4.66-2.07,4.49,4.49,0,0,1,3.59,1.38,6,6,0,0,1,1.19,4v8.67h-3.28v-8.28a4.77,4.77,0,0,0-.54-2.48,2.06,2.06,0,0,0-1.88-.82,3.62,3.62,0,0,0-1.94.54,3.3,3.3,0,0,0-1.28,1.37,13.85,13.85,0,0,0-.24,3v6.68h-3.27Z"/><path class="cls-4" d="M445.05,648a7,7,0,0,1-2.33-.33,3,3,0,0,1-1.45-1,4.44,4.44,0,0,1-.74-1.68,11.08,11.08,0,0,1-.22-2.39v-6.48h-2.25l0.13-1.77,2.35-.21,1-3.72h2v3.73H447v2h-3.41v6.54a4.11,4.11,0,0,0,.45,2.22,1.87,1.87,0,0,0,1.66.66,10.07,10.07,0,0,0,1.52-.12l0.09,2.35-0.31.06-0.54.1-0.66.08Q445.4,648,445.05,648Z"/><path class="cls-4" d="M464.64,648.05a8.26,8.26,0,0,1-6.35-2.52,9.83,9.83,0,0,1-2.35-7,9.36,9.36,0,0,1,2.45-6.77,8.5,8.5,0,0,1,6.42-2.55,9.55,9.55,0,0,1,5.43,1.49l-1.06,2.56a8.14,8.14,0,0,0-4.29-1.31,4.85,4.85,0,0,0-4,1.82,9,9,0,0,0,0,9.78,4.92,4.92,0,0,0,4,1.74,10,10,0,0,0,4.56-1.15l0.45,2.65A10.13,10.13,0,0,1,464.64,648.05Z"/><path class="cls-4" d="M279,674.72a2.93,2.93,0,0,1,2.88-2.12q2.61,0,2.95,3.76c0,0.47.06,1,.06,1.57v8.77h-2.08v-8.51a8.35,8.35,0,0,0-.32-3.05,1.46,1.46,0,0,0-.59-0.69,1.7,1.7,0,0,0-.59-0.1,1.62,1.62,0,0,0-1.56,1.22,8.23,8.23,0,0,0-.3,2.65v8.49h-1.91v-8.35q0-2.76-.65-3.58a1.16,1.16,0,0,0-1-.42,1.35,1.35,0,0,0-1.08.55,4.31,4.31,0,0,0-.84,2.81v9h-2.08V673h1.81l0.14,1.81a4.53,4.53,0,0,1,1-1.58,2.15,2.15,0,0,1,1.59-.64,2.44,2.44,0,0,1,1.62.56A3,3,0,0,1,279,674.72Z"/><path class="cls-4" d="M296.6,677.26q0-2.93-2.48-2.93a13.74,13.74,0,0,0-2.59.27,10.64,10.64,0,0,0-2,.52L289,673.46a15.38,15.38,0,0,1,4.85-.86,5.91,5.91,0,0,1,3.65,1,3.75,3.75,0,0,1,1.37,3.2v9.87H297l-0.3-1.58a6.42,6.42,0,0,1-2.05,1.35,6.16,6.16,0,0,1-2.45.54,4.13,4.13,0,0,1-2.88-1,3.77,3.77,0,0,1-1.15-2.95,3,3,0,0,1,1.5-2.79,6.54,6.54,0,0,1,2.15-.85q1.14-.23,3-0.46l1.82-.21v-1.45Zm0,6.38v-3.5l-1.86.26a15.13,15.13,0,0,0-2.7.55,2.21,2.21,0,0,0-1.67,2.13,2.25,2.25,0,0,0,.6,1.65,2.2,2.2,0,0,0,1.65.61A5.38,5.38,0,0,0,296.6,683.64Z"/><path class="cls-4" d="M308.12,686.7h-2.27V673h1.86l0.19,2.53a5.69,5.69,0,0,1,2.2-2.2,6.29,6.29,0,0,1,3.08-.75h1.1v2.11h-1.42a5.14,5.14,0,0,0-3.46,1.09,4.1,4.1,0,0,0-1.27,3.29v7.61Z"/><path class="cls-4" d="M327.77,684.08a4.17,4.17,0,0,1-1.5,1.85,4,4,0,0,1-2.4.77,4.86,4.86,0,0,1-4.11-2,8,8,0,0,1-1.51-4.92q0-3.9,1.95-5.82A5.19,5.19,0,0,1,324,672.6a4.25,4.25,0,0,1,3.78,2.27l0.08-1.86h2.31q-0.11,3.06-.11,8.13v3.67q0,4.42-1.92,6a7.73,7.73,0,0,1-4.17,1.47,28.05,28.05,0,0,1-3.25.16l-0.19-1.75a16.37,16.37,0,0,0,3.9-.33,5.34,5.34,0,0,0,1.72-.72,3.59,3.59,0,0,0,.92-1,7.24,7.24,0,0,0,.71-3.63v-0.91Zm-1.08-8.66a2.75,2.75,0,0,0-1-.79,3.62,3.62,0,0,0-1.5-.29,3.56,3.56,0,0,0-1.5.3,3,3,0,0,0-1.64,1.88,8.4,8.4,0,0,0-.46,2.7,13.5,13.5,0,0,0,.11,2,4.86,4.86,0,0,0,1,2.44,2.88,2.88,0,0,0,2.33,1,3.21,3.21,0,0,0,3.26-2.15,6.42,6.42,0,0,0,.47-2.43,16.89,16.89,0,0,0-.09-2,7.11,7.11,0,0,0-.34-1.47A4.05,4.05,0,0,0,326.69,675.42Z"/><path class="cls-4" d="M335.21,674.76V673h6.18V685h3.92v1.75H334.77V685h4.34v-10.2h-3.91Zm3.53-5.35v-1.24a1,1,0,0,1,.51-0.79,1.64,1.64,0,0,1,2,0,1,1,0,0,1,.5.79v1.24a1,1,0,0,1-.5.79,1.64,1.64,0,0,1-2,0A1,1,0,0,1,338.74,669.4Z"/><path class="cls-4" d="M356.26,672.6q4.26,0,4.26,5.39v8.71h-2.27v-8.44a10,10,0,0,0-.15-2.07,2.77,2.77,0,0,0-.45-1,2.47,2.47,0,0,0-2.08-.82,3.71,3.71,0,0,0-2.47.85,2.78,2.78,0,0,0-1,2.25v9.26h-2.27V673h2.08l0.12,1.49A4.87,4.87,0,0,1,356.26,672.6Z"/><path class="cls-4" d="M372.54,676.34h-3.76V672.6h3.76v3.74Zm0,8.56h-3.76v-3.76h3.76v3.76Z"/><path class="cls-4" d="M398.12,684.3a8,8,0,0,0,2.75.44,4,4,0,0,0,2.61-.89,3.12,3.12,0,0,0,1.07-2.55q0-2.6-3.21-3.23a10,10,0,0,0-1.93-.17H398v-2.22l1.37,0q3.32,0,4.16-1.54a3,3,0,0,0,.35-1.5,2.48,2.48,0,0,0-.88-2,3.86,3.86,0,0,0-2.5-.72,6.19,6.19,0,0,0-4.26,1.6l-0.86-2a8.11,8.11,0,0,1,5.42-1.67A6.7,6.7,0,0,1,405,669a3.93,3.93,0,0,1,1.63,3.26,3.67,3.67,0,0,1-1.19,3,6.91,6.91,0,0,1-2.88,1.39,7.07,7.07,0,0,1,3.32,1.52,4.1,4.1,0,0,1,1.44,3.34,4.63,4.63,0,0,1-2.83,4.52,9.51,9.51,0,0,1-4.07.79,8.21,8.21,0,0,1-5.07-1.56l0.87-2A6,6,0,0,0,398.12,684.3Z"/><path class="cls-4" d="M419.12,686.23a5.18,5.18,0,0,1-5.47,0,5.8,5.8,0,0,1-1.93-2.13,14,14,0,0,1-1.46-6.73q0-5,2-7.58a5,5,0,0,1,1.75-1.47,5.59,5.59,0,0,1,4.84,0,5.9,5.9,0,0,1,2.83,3.48,16.57,16.57,0,0,1,.88,5.57,14,14,0,0,1-1.46,6.73A5.81,5.81,0,0,1,419.12,686.23Zm-1-15.88a2.6,2.6,0,0,0-1.8-.66,2.46,2.46,0,0,0-1.92,1q-1.65,2-1.65,6.67a13.72,13.72,0,0,0,.9,5.4Zm1.15,1.75L414.8,684.5a2.59,2.59,0,0,0,1.73.57,2.43,2.43,0,0,0,1.89-1q1.65-2,1.65-6.65A14.1,14.1,0,0,0,419.22,672.1Z"/><path class="cls-4" d="M432.23,687a4.48,4.48,0,0,1-2.35-.61,4.22,4.22,0,0,1-1.56-1.57V692l-2.27.25V673h2.27v1.88a4.84,4.84,0,0,1,1.6-1.66,4.11,4.11,0,0,1,2.26-.64,5,5,0,0,1,4.81,2.8,9.23,9.23,0,0,1,.9,4.22,8.45,8.45,0,0,1-1.88,5.94A4.87,4.87,0,0,1,432.23,687Zm-3.93-7.24q0,5.49,3.84,5.49,3.46,0,3.46-5.49,0-3-.93-4.24a3.07,3.07,0,0,0-2.57-1.19q-3.19,0-3.69,3.7A12.1,12.1,0,0,0,428.3,679.77Z"/><path class="cls-4" d="M441.38,673H444l3.26,5.27,3.26-5.27h2.36l-4.21,6.64L453,686.7h-2.52l-3.34-5.45-3.48,5.45h-2.5l4.49-7Z"/><path class="cls-4" d="M473,670.64a20.26,20.26,0,0,0,4.19-2.56h2.35v16.8h3.92v1.82H473.06v-1.82h4.19V670.6l-1.75,1A16.43,16.43,0,0,1,473,672.9v-2.26Z"/><path class="cls-4" d="M495.82,686.23a5.18,5.18,0,0,1-5.47,0,5.8,5.8,0,0,1-1.93-2.13,14,14,0,0,1-1.46-6.73q0-5,2-7.58a5,5,0,0,1,1.75-1.47,5.59,5.59,0,0,1,4.84,0,5.9,5.9,0,0,1,2.83,3.48,16.57,16.57,0,0,1,.88,5.57,14,14,0,0,1-1.46,6.73A5.81,5.81,0,0,1,495.82,686.23Zm-1-15.88a2.6,2.6,0,0,0-1.8-.66,2.46,2.46,0,0,0-1.92,1q-1.65,2-1.65,6.67a13.72,13.72,0,0,0,.9,5.4Zm1.15,1.75L491.5,684.5a2.59,2.59,0,0,0,1.73.57,2.43,2.43,0,0,0,1.89-1q1.65-2,1.65-6.65A14.1,14.1,0,0,0,495.92,672.1Z"/><path class="cls-4" d="M508.93,687a4.48,4.48,0,0,1-2.35-.61,4.22,4.22,0,0,1-1.56-1.57V692l-2.27.25V673H505v1.88a4.84,4.84,0,0,1,1.6-1.66,4.11,4.11,0,0,1,2.26-.64,5,5,0,0,1,4.81,2.8,9.23,9.23,0,0,1,.9,4.22,8.45,8.45,0,0,1-1.88,5.94A4.87,4.87,0,0,1,508.93,687ZM505,679.77q0,5.49,3.84,5.49,3.46,0,3.46-5.49,0-3-.93-4.24a3.07,3.07,0,0,0-2.57-1.19q-3.19,0-3.69,3.7A12.1,12.1,0,0,0,505,679.77Z"/><path class="cls-4" d="M518.08,673h2.6l3.26,5.27,3.26-5.27h2.36l-4.21,6.64,4.36,7.05h-2.52l-3.34-5.45-3.48,5.45h-2.5l4.49-7Z"/><path class="cls-4" d="M536.56,690.61l0.95-7.48h3.39l-2.1,7.48h-2.25Zm4.59-14.37h-3.73v-3.76h3.73v3.76Z"/><path class="cls-3" d="M1000.15,306.12h-6v1h6v-1h0Zm-12,0h-6v1h6v-1h0Zm-12,0h-6v1h6v-1h0Zm-12,0h-6v1h6v-1h0Zm-12,0h-6v1h6v-1h0Zm-12,0h-6v1h6v-1h0Zm-12,0h-6v1h6v-1h0Zm-12,0h-6v1h6v-1h0Zm-12,0h-6v1h6v-1h0Zm-12,0h-6v1h6v-1h0Zm-12,0h-6v1h6v-1h0Zm-12,0h-6v1h6v-1h0Zm-12,0h-6v1h6v-1h0Zm-12,0h-6v1h6v-1h0Zm-12,0h-6v1h6v-1h0Zm-12,0h-6v1h6v-1h0Zm-12,0h-6v1h6v-1h0Zm-12,0h-6v1h6v-1h0Zm-12,0h-6v1h6v-1h0Zm-12,0h-6v1h6v-1h0Zm-12,0h-6v1h6v-1h0Zm-12,0h-6v1h6v-1h0Zm-12,0h-6v1h6v-1h0Zm-12,0h-6v1h6v-1h0Zm-12,0h-6v1h6v-1h0Zm-12,0h-6v1h6v-1h0Zm-12,0h-6v1h6v-1h0Zm-12,0h-6v1h6v-1h0Zm-12,0h-6v1h6v-1h0Zm-12,0h-6v1h6v-1h0Zm-12,0h-6v1h6v-1h0Zm-12,0h-6v1h6v-1h0Zm-12,0h-6v1h6v-1h0Zm-10.06.94h-1v6h1v-6h0Zm0,12h-1v6h1v-6h0Zm0,12h-1v6h1v-6h0Zm0,12h-1v6h1v-6h0Zm0,12h-1v6h1v-6h0Zm0,12h-1v6h1v-6h0Zm0,12h-1v6h1v-6h0Zm0,12h-1v6h1v-6h0Zm0,12h-1v6h1v-6h0Zm0,12h-1v6h1v-6h0Zm0,12h-1v6h1v-6h0Zm0,12h-1v6h1v-6h0Zm0,12h-1v6h1v-6h0Zm0,12h-1v6h1v-6h0Zm0,12h-1v6h1v-6h0Zm0,12h-1v6h1v-6h0Zm0,12h-1v6h1v-6h0Zm0,12h-1v6h1v-6h0Zm0,12h-1v3.83h2.17v-1h-1.17v-2.83h0Zm13.17,2.83h-6v1h6v-1h0Zm12,0h-6v1h6v-1h0Zm12,0h-6v1h6v-1h0Zm12,0h-6v1h6v-1h0Zm12,0h-6v1h6v-1h0Zm12,0h-6v1h6v-1h0Zm12,0h-6v1h6v-1h0Zm12,0h-6v1h6v-1h0Zm12,0h-6v1h6v-1h0Zm12,0h-6v1h6v-1h0Zm12,0h-6v1h6v-1h0Zm12,0h-6v1h6v-1h0Zm12,0h-6v1h6v-1h0Zm12,0h-6v1h6v-1h0Zm12,0h-6v1h6v-1h0Zm12,0h-6v1h6v-1h0Zm12,0h-6v1h6v-1h0Zm12,0h-6v1h6v-1h0Zm12,0h-6v1h6v-1h0Zm12,0h-6v1h6v-1h0Zm12,0h-6v1h6v-1h0Zm12,0h-6v1h6v-1h0Zm12,0h-6v1h6v-1h0Zm12,0h-6v1h6v-1h0Zm12,0h-6v1h6v-1h0Zm12,0h-6v1h6v-1h0Zm12,0h-6v1h6v-1h0Zm12,0h-6v1h6v-1h0Zm12,0h-6v1h6v-1h0Zm12,0h-6v1h6v-1h0Zm12,0h-6v1h6v-1h0Zm12,0h-6v1h6v-1h0Zm8.89-2.11h-1v2.11h-1.89v1h2.89v-3.11h0Zm0-12h-1v6h1v-6h0Zm0-12h-1v6h1v-6h0Zm0-12h-1v6h1v-6h0Zm0-12h-1v6h1v-6h0Zm0-12h-1v6h1v-6h0Zm0-12h-1v6h1v-6h0Zm0-12h-1v6h1v-6h0Zm0-12h-1v6h1v-6h0Zm0-12h-1v6h1v-6h0Zm0-12h-1v6h1v-6h0Zm0-12h-1v6h1v-6h0Zm0-12h-1v6h1v-6h0Zm0-12h-1v6h1v-6h0Zm0-12h-1v6h1v-6h0Zm0-12h-1v6h1v-6h0Zm0-12h-1v6h1v-6h0Zm0-12h-1v6h1v-6h0Zm0-12h-1v6h1v-6h0Z"/><rect class="cls-5" x="628.33" y="329.36" width="348.58" height="174.29"/><path class="cls-4" d="M742.15,403.78V385.5h11.08l-0.14,2.68h-7.56v4.72h7.19v2.68h-7.19v5.5h7.84l-0.11,2.7H742.15Z"/><path class="cls-4" d="M761,404a7.07,7.07,0,0,1-2.34-.33,3,3,0,0,1-1.47-1.05,4.37,4.37,0,0,1-.75-1.72,12.19,12.19,0,0,1-.21-2.48V385l3.27-.21v13.52a4.93,4.93,0,0,0,.44,2.5,1.9,1.9,0,0,0,1.7.66,11.57,11.57,0,0,0,1.58-.14l0.09,2.33-0.31.06-0.56.11-0.68.09A7.21,7.21,0,0,1,761,404Z"/><path class="cls-4" d="M771.22,404a6.83,6.83,0,0,1-5.15-1.9,7.25,7.25,0,0,1-1.84-5.26,7.51,7.51,0,0,1,1.74-5.21,6.07,6.07,0,0,1,4.73-1.95,5.56,5.56,0,0,1,4.4,1.77,6.84,6.84,0,0,1,1.57,4.71c0,0.14,0,.37,0,0.69s0,0.55,0,.7h-9.12a4.32,4.32,0,0,0,1.05,3,3.63,3.63,0,0,0,2.76,1.05,8.65,8.65,0,0,0,4.32-1.17l0.46,2.32A9.14,9.14,0,0,1,771.22,404Zm-3.63-8.51h6a3.87,3.87,0,0,0-.76-2.57,2.62,2.62,0,0,0-2.11-.9,2.88,2.88,0,0,0-2.13.87A4,4,0,0,0,767.59,395.53Z"/><path class="cls-4" d="M779.32,403.78V390.07H782l0.37,1.75q0.25-.31.48-0.56a5.21,5.21,0,0,1,.64-0.55,4.26,4.26,0,0,1,.86-0.51,5.71,5.71,0,0,1,1.12-.34,7.08,7.08,0,0,1,1.43-.14,4.6,4.6,0,0,1,2.61.66,3.75,3.75,0,0,1,1.38,1.55,4.9,4.9,0,0,1,1.91-1.64,5.86,5.86,0,0,1,2.61-.57,4.24,4.24,0,0,1,3.46,1.34,6.09,6.09,0,0,1,1.1,4v8.76h-3.28V396a7,7,0,0,0-.44-2.9,1.71,1.71,0,0,0-1.69-.89,2.84,2.84,0,0,0-2.75,1.72,6.1,6.1,0,0,0-.47,1.83v8H788v-7.94a5.94,5.94,0,0,0-.49-2.73,1.82,1.82,0,0,0-1.76-.9,3,3,0,0,0-1.78.52,3.32,3.32,0,0,0-1.14,1.37,13.73,13.73,0,0,0-.29,3v6.65h-3.27Z"/><path class="cls-4" d="M809.52,404a6.83,6.83,0,0,1-5.15-1.9,7.25,7.25,0,0,1-1.84-5.26,7.51,7.51,0,0,1,1.74-5.21,6.07,6.07,0,0,1,4.73-1.95,5.56,5.56,0,0,1,4.4,1.77,6.84,6.84,0,0,1,1.57,4.71c0,0.14,0,.37,0,0.69s0,0.55,0,.7h-9.12a4.32,4.32,0,0,0,1.05,3,3.63,3.63,0,0,0,2.76,1.05,8.65,8.65,0,0,0,4.32-1.17l0.46,2.32A9.14,9.14,0,0,1,809.52,404Zm-3.63-8.51h6a3.87,3.87,0,0,0-.76-2.57,2.62,2.62,0,0,0-2.11-.9,2.88,2.88,0,0,0-2.13.87A4,4,0,0,0,805.89,395.53Z"/><path class="cls-4" d="M817.62,403.78V390.07h2.63l0.36,1.74a6.49,6.49,0,0,1,4.66-2.07,4.49,4.49,0,0,1,3.59,1.38,6,6,0,0,1,1.19,4v8.67h-3.28v-8.28a4.77,4.77,0,0,0-.54-2.48,2.06,2.06,0,0,0-1.88-.82,3.62,3.62,0,0,0-1.94.54,3.3,3.3,0,0,0-1.28,1.37,13.85,13.85,0,0,0-.24,3v6.68h-3.27Z"/><path class="cls-4" d="M838.75,404a7,7,0,0,1-2.33-.33,3,3,0,0,1-1.45-1,4.44,4.44,0,0,1-.74-1.68,11.08,11.08,0,0,1-.22-2.39v-6.48h-2.25l0.13-1.77,2.35-.21,1-3.72h2v3.73h3.41v2h-3.41v6.54a4.11,4.11,0,0,0,.45,2.22,1.87,1.87,0,0,0,1.66.66,10.07,10.07,0,0,0,1.52-.12L841,403.7l-0.31.06-0.54.1-0.66.08Q839.1,404,838.75,404Z"/><path class="cls-4" d="M850.36,403.78V385.5h5.71a10.87,10.87,0,0,1,5.42,1.06,3.78,3.78,0,0,1,1.78,3.53,6.14,6.14,0,0,1,0,.79,4.35,4.35,0,0,1-.22.88,3.54,3.54,0,0,1-.46.89,3.65,3.65,0,0,1-.8.78,3.93,3.93,0,0,1-1.2.59,4.48,4.48,0,0,1,2.6,1.58,5.12,5.12,0,0,1-.93,6.82,8.32,8.32,0,0,1-5.06,1.36h-6.78ZM853.74,393h2.9q3.36,0,3.36-2.56a2.06,2.06,0,0,0-1-2,6.65,6.65,0,0,0-3.08-.54h-2.21V393Zm0,8.29h2.93q3.89,0,3.89-3a2.5,2.5,0,0,0-1-2.21,5.35,5.35,0,0,0-3-.67h-2.85v5.93Z"/><path class="cls-4" d="M711.25,430.71a2.93,2.93,0,0,1,2.88-2.12q2.61,0,2.95,3.76c0,0.47.06,1,.06,1.57v8.77h-2.08v-8.51a8.35,8.35,0,0,0-.32-3.05,1.46,1.46,0,0,0-.59-0.69,1.7,1.7,0,0,0-.59-0.1,1.62,1.62,0,0,0-1.56,1.22,8.23,8.23,0,0,0-.3,2.65v8.49h-1.91v-8.35q0-2.76-.65-3.58a1.16,1.16,0,0,0-1-.42,1.35,1.35,0,0,0-1.08.55,4.31,4.31,0,0,0-.84,2.81v9h-2.08V429H706l0.14,1.81a4.53,4.53,0,0,1,1-1.58,2.15,2.15,0,0,1,1.59-.64,2.44,2.44,0,0,1,1.62.56A3,3,0,0,1,711.25,430.71Z"/><path class="cls-4" d="M728.85,433.26q0-2.93-2.48-2.93a13.74,13.74,0,0,0-2.59.27,10.64,10.64,0,0,0-2,.52l-0.54-1.67a15.38,15.38,0,0,1,4.85-.86,5.91,5.91,0,0,1,3.65,1,3.75,3.75,0,0,1,1.37,3.2v9.87h-1.88l-0.3-1.58a6.42,6.42,0,0,1-2.05,1.35,6.16,6.16,0,0,1-2.45.54,4.13,4.13,0,0,1-2.88-1A3.77,3.77,0,0,1,720.4,439a3,3,0,0,1,1.5-2.79,6.54,6.54,0,0,1,2.15-.85q1.14-.23,3-0.46l1.82-.21v-1.45Zm0,6.38v-3.5l-1.86.26a15.13,15.13,0,0,0-2.7.55,2.21,2.21,0,0,0-1.67,2.13,2.25,2.25,0,0,0,.6,1.65,2.2,2.2,0,0,0,1.65.61A5.38,5.38,0,0,0,728.85,439.64Z"/><path class="cls-4" d="M740.37,442.69H738.1V429H740l0.19,2.53a5.69,5.69,0,0,1,2.2-2.2,6.29,6.29,0,0,1,3.08-.75h1.1v2.11H745.1a5.14,5.14,0,0,0-3.46,1.09,4.1,4.1,0,0,0-1.27,3.29v7.61Z"/><path class="cls-4" d="M760,440.07a4.17,4.17,0,0,1-1.5,1.85,4,4,0,0,1-2.4.77,4.86,4.86,0,0,1-4.11-2,8,8,0,0,1-1.51-4.92q0-3.9,1.95-5.82a5.19,5.19,0,0,1,3.78-1.35,4.25,4.25,0,0,1,3.78,2.27l0.08-1.86h2.31q-0.11,3.06-.11,8.13v3.67q0,4.42-1.92,6a7.73,7.73,0,0,1-4.17,1.47,28.05,28.05,0,0,1-3.25.16l-0.19-1.75a16.37,16.37,0,0,0,3.9-.33,5.34,5.34,0,0,0,1.72-.72,3.59,3.59,0,0,0,.92-1A7.24,7.24,0,0,0,760,441v-0.91Zm-1.08-8.66a2.75,2.75,0,0,0-1-.79,3.62,3.62,0,0,0-1.5-.29,3.56,3.56,0,0,0-1.5.3,3,3,0,0,0-1.64,1.88,8.4,8.4,0,0,0-.46,2.7,13.5,13.5,0,0,0,.11,2,4.86,4.86,0,0,0,1,2.44,2.88,2.88,0,0,0,2.33,1,3.21,3.21,0,0,0,3.26-2.15,6.42,6.42,0,0,0,.47-2.43,16.89,16.89,0,0,0-.09-2,7.11,7.11,0,0,0-.34-1.47A4.05,4.05,0,0,0,758.94,431.42Z"/><path class="cls-4" d="M767.45,430.75V429h6.18v11.95h3.92v1.75H767v-1.75h4.34v-10.2h-3.91Zm3.53-5.35v-1.24a1,1,0,0,1,.51-0.79,1.64,1.64,0,0,1,2,0,1,1,0,0,1,.5.79v1.24a1,1,0,0,1-.5.79,1.64,1.64,0,0,1-2,0A1,1,0,0,1,771,425.39Z"/><path class="cls-4" d="M788.51,428.59q4.26,0,4.26,5.39v8.71h-2.27v-8.44a10,10,0,0,0-.15-2.07,2.77,2.77,0,0,0-.45-1,2.47,2.47,0,0,0-2.08-.82,3.71,3.71,0,0,0-2.47.85,2.78,2.78,0,0,0-1,2.25v9.26h-2.27V429h2.08l0.12,1.49A4.87,4.87,0,0,1,788.51,428.59Z"/><path class="cls-4" d="M804.79,432.33H801v-3.74h3.76v3.74Zm0,8.56H801v-3.76h3.76v3.76Z"/><path class="cls-4" d="M828.59,426.63a20.26,20.26,0,0,0,4.19-2.56h2.35v16.8H839v1.82H828.6v-1.82h4.19V426.59l-1.75,1a16.43,16.43,0,0,1-2.46,1.25v-2.26Z"/><path class="cls-4" d="M851.37,442.23a5.18,5.18,0,0,1-5.47,0A5.8,5.8,0,0,1,844,440.1a14,14,0,0,1-1.46-6.73q0-5,2-7.58a5,5,0,0,1,1.75-1.47,5.59,5.59,0,0,1,4.84,0,5.9,5.9,0,0,1,2.83,3.48,16.57,16.57,0,0,1,.88,5.57,14,14,0,0,1-1.46,6.73A5.81,5.81,0,0,1,851.37,442.23Zm-1-15.88a2.6,2.6,0,0,0-1.8-.66,2.46,2.46,0,0,0-1.92,1q-1.65,2-1.65,6.67a13.72,13.72,0,0,0,.9,5.4Zm1.15,1.75-4.42,12.41a2.59,2.59,0,0,0,1.73.57,2.43,2.43,0,0,0,1.89-1q1.65-2,1.65-6.65A14.1,14.1,0,0,0,851.47,428.09Z"/><path class="cls-4" d="M864.48,443a4.48,4.48,0,0,1-2.35-.61,4.22,4.22,0,0,1-1.56-1.57v7.13l-2.27.25V429h2.27v1.88a4.84,4.84,0,0,1,1.6-1.66,4.11,4.11,0,0,1,2.26-.64,5,5,0,0,1,4.81,2.8,9.23,9.23,0,0,1,.9,4.22,8.45,8.45,0,0,1-1.88,5.94A4.87,4.87,0,0,1,864.48,443Zm-3.93-7.24q0,5.49,3.84,5.49,3.46,0,3.46-5.49,0-3-.93-4.24a3.07,3.07,0,0,0-2.57-1.19q-3.19,0-3.69,3.7A12.1,12.1,0,0,0,860.54,435.77Z"/><path class="cls-4" d="M873.62,429h2.6l3.26,5.27,3.26-5.27h2.36l-4.21,6.64,4.36,7.05h-2.52l-3.34-5.45-3.48,5.45h-2.5l4.49-7Z"/><path class="cls-4" d="M892.11,446.6l0.95-7.48h3.39l-2.1,7.48h-2.25Zm4.59-14.37H893v-3.76h3.73v3.76Z"/></svg>